<?xml version="1.0" encoding="UTF-8"?>
<svg version="1.1" xmlns="http://www.w3.org/2000/svg" width="2959" height="1466">
<path d="M0 0 C2.36582457 -0.00697702 4.73164894 -0.01401801 7.09747314 -0.02111816 C14.62097402 -0.04040983 22.14444584 -0.04529404 29.66796875 -0.046875 C30.94757854 -0.04746414 32.22718834 -0.04805328 33.54557419 -0.04866028 C70.40365293 -0.06064917 107.11002018 0.12117954 143.87506104 2.97528076 C146.92948881 3.20878364 149.98468139 3.42701401 153.04052734 3.64111328 C256.63897955 10.93102714 359.61358148 27.3028063 460.33868408 52.57226562 C462.61016464 53.14163686 464.88277177 53.70622416 467.15576172 54.26953125 C488.07470004 59.50954305 511.10988617 66.28648896 523.41796875 85.48828125 C530.63841099 99.12471429 530.38907343 113.56473712 526.171875 128.10546875 C516.19339512 160.077958 494.3746209 187.14601214 471.671875 211.17578125 C470.73203726 212.18393135 469.79328581 213.19309492 468.85546875 214.203125 C468.32977295 214.75967773 467.80407715 215.31623047 467.26245117 215.88964844 C463.62490531 219.86963127 460.81130864 223.90358548 458.0234375 228.5234375 C452.61220498 236.67547028 446.31622627 243.88238869 436.85546875 247.203125 C418.65478512 250.47045866 398.85953472 247.56167581 380.5735054 245.98394299 C370.57985233 245.12474703 360.69070244 244.87405534 350.66796875 245.015625 C349.23552136 245.02607875 347.80306627 245.03552749 346.37060547 245.04394531 C342.9043276 245.06885881 339.43875202 245.1144232 335.97283936 245.16992188 C333.7776671 245.20434503 331.58246434 245.23327433 329.38720703 245.26171875 C242.85222965 246.45397128 155.67122281 255.27940812 41.73046875 284.42382812 C39.84328125 284.9874707 39.84328125 284.9874707 37.91796875 285.5625 C36.81582031 285.90249023 35.71367187 286.24248047 34.578125 286.59277344 C31.85546875 287.203125 31.85546875 287.203125 28.85546875 286.203125 C29.64050781 285.3575 30.42554687 284.511875 31.234375 283.640625 C32.29563036 282.49484487 33.35682499 281.34900849 34.41796875 280.203125 C34.93166016 279.65011719 35.44535156 279.09710938 35.97460938 278.52734375 C38.70546047 275.57598915 41.38580474 272.59517222 44.00390625 269.54321289 C48.07710326 264.88188646 52.40769879 260.50688227 56.7890625 256.13671875 C58.0442141 254.88013206 58.0442141 254.88013206 59.32472229 253.59815979 C61.08414979 251.83805565 62.84482528 250.07919823 64.60668945 248.3215332 C67.28516286 245.64841528 69.95825748 242.97000249 72.63085938 240.29101562 C74.3499399 238.57259597 76.06933064 236.85448658 77.7890625 235.13671875 C78.57889023 234.34486679 79.36871796 233.55301483 80.18247986 232.73716736 C84.38048579 228.55662789 88.65544331 224.52989471 93.1506958 220.66978455 C95.5421401 218.61236417 97.85091109 216.46861061 100.16796875 214.328125 C104.57900048 210.30931907 109.09282233 206.47447176 113.73828125 202.73046875 C116.06784817 200.85264584 118.36804272 198.94288383 120.66015625 197.01953125 C130.33134874 188.92562463 140.26638501 181.30534972 150.48681641 173.91894531 C152.8190829 172.22948243 155.14103032 170.5266946 157.4609375 168.8203125 C167.36122817 161.56180647 177.43841351 154.69728314 187.85546875 148.203125 C188.85304199 147.57921875 189.85061523 146.9553125 190.87841797 146.3125 C207.28708304 136.09030889 223.98564603 126.6449806 241.10400391 117.66552734 C244.39848329 115.91451301 247.63456349 114.08547223 250.85546875 112.203125 C231.63440555 119.73414945 212.61840151 127.5802047 193.85546875 136.203125 C193.20429077 136.50196594 192.55311279 136.80080688 191.88220215 137.10870361 C164.26574193 149.79505112 137.21381698 163.30353202 110.86621094 178.47705078 C107.60300093 180.34786612 104.3279115 182.19665287 101.05078125 184.04296875 C86.69212618 192.14612255 72.57560587 200.55990286 58.66552734 209.41796875 C55.97184532 211.12919403 53.26893905 212.82466811 50.5625 214.515625 C27.50380304 228.97551022 5.0348608 244.433061 -17.14453125 260.203125 C-18.25296387 260.98961426 -18.25296387 260.98961426 -19.38378906 261.79199219 C-30.12644895 269.43048759 -40.64629153 277.33930336 -51.109375 285.35546875 C-55.49291861 288.71246013 -59.90558127 292.02804348 -64.33203125 295.328125 C-77.95278004 305.51002315 -91.2749809 316.04959448 -104.43896484 326.81347656 C-106.76571301 328.70924676 -109.10983432 330.58276021 -111.45703125 332.453125 C-119.51415728 338.88539728 -127.45760314 345.44364739 -135.31225586 352.12084961 C-138.68246141 354.98121759 -142.08452587 357.79546485 -145.51953125 360.578125 C-151.2211118 365.22048594 -156.76156451 370.03819627 -162.3046875 374.8671875 C-165.39514493 377.55814487 -168.50552597 380.22453125 -171.62451172 382.88232422 C-176.43208108 386.97903643 -181.18076037 391.11541431 -185.83203125 395.390625 C-189.42420873 398.69183081 -193.09503184 401.83034793 -196.89453125 404.890625 C-200.65896392 407.92886924 -204.12660547 411.06638799 -207.48828125 414.5390625 C-209.83260343 416.8944428 -212.34482895 419.03257273 -214.859375 421.203125 C-219.17277893 424.97827511 -223.36776047 428.88566153 -227.58447266 432.76806641 C-229.58721083 434.61033479 -231.59429985 436.4478206 -233.6015625 438.28515625 C-243.28347413 447.14959777 -252.9313672 456.04978036 -262.51953125 465.015625 C-263.1734082 465.62567383 -263.82728516 466.23572266 -264.50097656 466.86425781 C-267.59634173 469.76409304 -270.64502623 472.69245939 -273.62109375 475.71484375 C-276.02247045 478.13821108 -278.49628256 480.41521656 -281.08203125 482.640625 C-285.31484011 486.29437908 -289.23082498 490.21297916 -293.14453125 494.203125 C-294.47526335 495.55984797 -295.80859145 496.91402965 -297.14453125 498.265625 C-297.72203125 498.85472656 -298.29953125 499.44382812 -298.89453125 500.05078125 C-300.76416601 501.83926867 -302.66748613 503.51396304 -304.63291931 505.1934967 C-309.83868631 509.74075467 -314.70038585 514.61859736 -319.58032227 519.50952148 C-320.6044084 520.53224963 -321.62870649 521.55476557 -322.65319824 522.5770874 C-325.41370081 525.33306289 -328.17106904 528.09215385 -330.92771649 530.85198474 C-333.82570794 533.75252435 -336.72615717 536.65060467 -339.62620544 539.54908752 C-344.49405754 544.41512507 -349.35980835 549.28325629 -354.22436523 554.15258789 C-359.83244274 559.76610663 -365.44411336 565.37601409 -371.0576635 570.98405975 C-375.89456337 575.81640813 -380.72949489 580.65071941 -385.56281418 585.4866491 C-388.44196944 588.36735594 -391.32177833 591.24740065 -394.20337105 594.12566948 C-396.91351255 596.83290258 -399.6211585 599.542608 -402.32697296 602.25416565 C-403.31489568 603.24340014 -404.30365079 604.23180421 -405.29334068 605.21927071 C-410.27051623 610.18630255 -415.13871529 615.18562163 -419.70267391 620.53752995 C-421.88998535 623.06425365 -424.23425768 625.3866315 -426.61328125 627.734375 C-427.09728394 628.21459106 -427.58128662 628.69480713 -428.07995605 629.1895752 C-430.10752771 631.20112379 -432.14115974 633.20650153 -434.17431641 635.21240234 C-439.46288761 640.43645808 -444.65763508 645.66976814 -449.49023438 651.32617188 C-453.1652081 655.49577016 -457.21780605 659.31331025 -461.18359375 663.203125 C-465.11456961 667.08856832 -468.82311211 671.07839915 -472.4296875 675.265625 C-475.19338605 678.38816368 -478.16604944 681.28733071 -481.14453125 684.203125 C-485.37859141 688.38850509 -489.46285168 692.59992023 -493.30859375 697.1484375 C-496.30604577 700.50303274 -499.54089916 703.61911821 -502.74047852 706.77954102 C-506.09546692 710.10926833 -509.2419373 713.5426172 -512.3046875 717.14453125 C-515.10151067 720.27388541 -518.10928473 723.18854129 -521.09570312 726.13476562 C-524.34470167 729.35694987 -527.36904517 732.69661974 -530.3359375 736.17578125 C-533.31981129 739.52055554 -536.55072857 742.61647657 -539.73828125 745.765625 C-541.7990247 747.85313135 -543.73968751 749.97481723 -545.64453125 752.203125 C-549.12905232 756.27935719 -552.92535106 759.99863373 -556.73828125 763.765625 C-558.7990247 765.85313135 -560.73968751 767.97481723 -562.64453125 770.203125 C-566.12905232 774.27935719 -569.92535106 777.99863373 -573.73828125 781.765625 C-575.7990247 783.85313135 -577.73968751 785.97481723 -579.64453125 788.203125 C-582.34064266 791.35706665 -585.192701 794.28685897 -588.14453125 797.203125 C-591.07571316 800.09904458 -593.90856299 803.00555071 -596.58203125 806.140625 C-599.44625499 809.49237619 -602.50787594 812.60868578 -605.64453125 815.703125 C-608.73944997 818.75650118 -611.76387422 821.82636208 -614.58203125 825.140625 C-617.59805974 828.67991626 -620.83901349 831.93806645 -624.14453125 835.203125 C-627.40836057 838.42710293 -630.61283289 841.63830374 -633.58203125 845.140625 C-637.23011298 849.43406762 -641.23660636 853.3503961 -645.26342773 857.28491211 C-648.14402606 860.11979363 -650.88301016 863.0137342 -653.51953125 866.078125 C-658.01370206 871.27902034 -662.92719839 876.03440275 -667.828125 880.84765625 C-671.14075551 884.12434502 -674.37146087 887.4059081 -677.39453125 890.953125 C-682.98100964 897.44620903 -689.22979184 903.34242787 -695.31982422 909.35791016 C-696.96145855 910.98124525 -698.59991144 912.6077462 -700.23828125 914.234375 C-700.72703735 914.71483276 -701.21579346 915.19529053 -701.71936035 915.69030762 C-704.41863821 918.3709085 -706.97198878 921.12702312 -709.45532227 924.00952148 C-713.46248367 928.63386449 -717.7473305 932.94980767 -722.078125 937.26953125 C-722.91489273 938.10725571 -723.75166046 938.94498016 -724.61378479 939.80809021 C-726.37321229 941.56819435 -728.13388778 943.32705177 -729.89575195 945.0847168 C-732.57422536 947.75783472 -735.24731998 950.43624751 -737.91992188 953.11523438 C-739.6390024 954.83365403 -741.35839314 956.55176342 -743.078125 958.26953125 C-743.86795273 959.06138321 -744.65778046 959.85323517 -745.47154236 960.66908264 C-749.67254506 964.85260641 -753.95075802 968.88142587 -758.45005798 972.74333191 C-760.78110488 974.75153483 -763.01947243 976.85499941 -765.26953125 978.953125 C-770.47737805 983.70187787 -775.92152728 988.05545692 -781.49609375 992.36328125 C-783.91516893 994.23409299 -786.30305599 996.13541048 -788.66796875 998.07421875 C-815.27021486 1019.84994304 -844.96844324 1037.85454466 -875.14453125 1054.203125 C-876.29598633 1054.83420166 -876.29598633 1054.83420166 -877.47070312 1055.47802734 C-946.29864455 1093.10151792 -1023.6191345 1115.50386995 -1264.76953125 1145.765625 C-1265.51655304 1145.78647156 -1266.26357483 1145.80731812 -1267.03323364 1145.82879639 C-1363.43258668 1148.436189 -1459.86891331 1140.85417959 -1735.14453125 1090.203125 C-1736.05340088 1089.98138611 -1736.96227051 1089.75964722 -1737.89868164 1089.53118896 C-1799.76740397 1074.43534836 -1861.42154736 1056.19425035 -1920.70703125 1032.828125 C-1922.48920044 1032.1328772 -1922.48920044 1032.1328772 -1924.30737305 1031.42358398 C-1939.79923504 1025.1928351 -1954.90602293 1016.99406229 -1962.14453125 1001.203125 C-1968.51215073 985.39302795 -1964.9788344 968.57104134 -1958.95703125 953.265625 C-1946.02759376 924.22351466 -1926.00111088 899.82047271 -1904.51513672 876.68701172 C-1902.68526211 874.70589702 -1900.87847235 872.70439008 -1899.07177734 870.70214844 C-1897.70858339 869.20482985 -1896.32450653 867.72915468 -1894.9375 866.25390625 C-1892.52645468 863.67600075 -1890.32689108 860.97498243 -1888.17700195 858.17651367 C-1881.88038993 851.39205101 -1881.88038993 851.39205101 -1876.73266602 850.83178711 C-1875.46737061 850.96335205 -1874.2020752 851.09491699 -1872.8984375 851.23046875 C-1872.17397934 851.29662384 -1871.44952118 851.36277893 -1870.70310974 851.43093872 C-1869.07549228 851.5821218 -1867.44902228 851.74602325 -1865.82373047 851.92044067 C-1862.97257221 852.22126853 -1860.11987932 852.47810446 -1857.26367188 852.72631836 C-1852.83816599 853.11196797 -1848.41402761 853.50974873 -1843.99047852 853.91723633 C-1831.04925369 855.10068795 -1818.09846771 856.16940962 -1805.14453125 857.203125 C-1804.01998535 857.29309753 -1802.89543945 857.38307007 -1801.73681641 857.47576904 C-1766.79941743 860.22297994 -1731.86189101 860.51172181 -1696.83536911 860.57104111 C-1693.40960455 860.57796814 -1689.98388388 860.5896137 -1686.55813599 860.60220337 C-1595.08868003 860.89223752 -1503.66856131 851.96773559 -1356.14453125 814.203125 C-1358.44783556 818.94317903 -1361.59394924 822.32389407 -1365.14453125 826.203125 C-1365.872771 826.99904053 -1365.872771 826.99904053 -1366.61572266 827.81103516 C-1387.65952586 850.7429759 -1387.65952586 850.7429759 -1398.96875 860.30859375 C-1401.41041067 862.4346358 -1403.76499924 864.6403066 -1406.12426758 866.85693359 C-1411.64350765 872.04018156 -1417.22165141 877.05137787 -1423.13671875 881.78515625 C-1425.41324271 883.61524499 -1427.66359914 885.46451717 -1429.90234375 887.33984375 C-1439.90318503 895.70108565 -1450.17525541 903.62131373 -1460.66113281 911.36376953 C-1463.04711147 913.13097 -1465.42140725 914.91273649 -1467.79296875 916.69921875 C-1485.63696808 930.08221825 -1504.37639204 942.16703572 -1523.14453125 954.203125 C-1515.34175094 951.00126208 -1507.61722478 947.6697344 -1499.95703125 944.140625 C-1498.9323877 943.66874756 -1497.90774414 943.19687012 -1496.85205078 942.71069336 C-1493.61346124 941.21400902 -1490.3782081 939.71039256 -1487.14453125 938.203125 C-1486.09410645 937.71360352 -1485.04368164 937.22408203 -1483.96142578 936.71972656 C-1469.97248427 930.17207969 -1456.31027737 923.19974034 -1442.81982422 915.68115234 C-1440.18102333 914.22328589 -1437.52794977 912.79623879 -1434.8671875 911.37890625 C-1421.28695517 904.12482269 -1408.14065782 896.24492474 -1395.03083801 888.18461609 C-1391.78263781 886.19186858 -1388.51728176 884.23630937 -1385.21875 882.328125 C-1373.63412186 875.60936465 -1362.54559058 868.20248732 -1351.45703125 860.703125 C-1350.67756134 860.17614014 -1349.89809143 859.64915527 -1349.09500122 859.10620117 C-1338.01643159 851.60503921 -1327.04562469 843.95967589 -1316.14453125 836.203125 C-1315.23872314 835.55939941 -1314.33291504 834.91567383 -1313.3996582 834.25244141 C-1303.13562905 826.93416751 -1293.05267335 819.40100126 -1283.07714844 811.69482422 C-1281.28231981 810.30947772 -1279.48393344 808.92895433 -1277.68359375 807.55078125 C-1264.94317474 797.79354049 -1252.38091744 787.83196865 -1239.953125 777.6796875 C-1238.35217645 776.37264959 -1236.74855149 775.06889144 -1235.14453125 773.765625 C-1224.50709984 765.1072506 -1214.09489449 756.18294108 -1203.69140625 747.24609375 C-1201.31069964 745.20144821 -1198.92500316 743.16285974 -1196.53515625 741.12890625 C-1190.12011153 735.66317308 -1183.79792012 730.12626545 -1177.5859375 724.4296875 C-1175.48298292 722.51179293 -1173.35783969 720.62936455 -1171.20703125 718.765625 C-1167.30817152 715.37704548 -1163.50605443 711.8859497 -1159.70507812 708.38867188 C-1156.55722325 705.4935933 -1153.39240747 702.61951492 -1150.20703125 699.765625 C-1136.54751911 687.49595193 -1122.83999263 675.1206859 -1109.9831543 662.00878906 C-1108.29131493 660.34727745 -1106.55199224 658.82263188 -1104.73828125 657.296875 C-1098.56056134 651.92618014 -1092.89501495 646.02187334 -1087.14453125 640.203125 C-1084.87674268 637.90841526 -1082.60543417 635.61727124 -1080.33203125 633.328125 C-1079.82969971 632.81749512 -1079.32736816 632.30686523 -1078.80981445 631.78076172 C-1076.06904976 629.02167461 -1073.25694901 626.4044511 -1070.31079102 623.86499023 C-1065.7729309 619.93460425 -1061.53484019 615.73741719 -1057.296875 611.48828125 C-1056.48134659 610.67370956 -1055.66581818 609.85913788 -1054.82557678 609.0198822 C-1053.11255117 607.30753307 -1051.4007716 605.59393658 -1049.69018555 603.87915039 C-1047.08949573 601.27310485 -1044.48351169 598.67243978 -1041.87695312 596.07226562 C-1040.20410639 594.39875801 -1038.53156991 592.72494018 -1036.859375 591.05078125 C-1036.08939682 590.2828273 -1035.31941864 589.51487335 -1034.52610779 588.72364807 C-1030.4765597 584.65671959 -1026.61734354 580.49775972 -1022.87062073 576.15159607 C-1019.88824265 572.78498184 -1016.6873624 569.64346035 -1013.48828125 566.484375 C-1012.78231812 565.78219849 -1012.07635498 565.08002197 -1011.34899902 564.35656738 C-1008.3655575 561.38928734 -1005.37612415 558.42807137 -1002.38720703 555.46630859 C-1000.18962546 553.28694035 -997.99515187 551.10447553 -995.80078125 548.921875 C-995.13703491 548.266427 -994.47328857 547.610979 -993.78942871 546.93566895 C-989.9264478 543.09270222 -986.27962836 539.12816779 -982.71984863 535.0032959 C-980.75276022 532.75543439 -978.67978709 530.64132529 -976.55078125 528.546875 C-975.74769531 527.75152344 -974.94460938 526.95617187 -974.1171875 526.13671875 C-972.46875 524.51432292 -970.8203125 522.89192708 -969.171875 521.26953125 C-964.86914854 517.00824357 -960.75063293 512.68234391 -956.80664062 508.08789062 C-954.06521627 504.97922493 -951.10497455 502.10126043 -948.14453125 499.203125 C-943.91047109 495.01774491 -939.82621082 490.80632977 -935.98046875 486.2578125 C-932.98232832 482.90244683 -929.74667375 479.78568739 -926.54638672 476.62451172 C-923.80094958 473.89972343 -921.15168125 471.15271323 -918.64453125 468.203125 C-915.16909575 464.11437735 -911.36352888 460.39495816 -907.54907227 456.62719727 C-904.19392231 453.2973017 -901.04727673 449.86381101 -897.984375 446.26171875 C-895.18686258 443.13159338 -892.17828619 440.21626842 -889.19116211 437.26928711 C-886.56413123 434.6639113 -884.04452557 432.01850295 -881.64453125 429.203125 C-878.36152345 425.35190431 -874.79048613 421.8202364 -871.19140625 418.26953125 C-868.56429567 415.66407268 -866.04460041 413.01859075 -863.64453125 410.203125 C-860.80330324 406.87014599 -857.76031502 403.77703699 -854.64453125 400.703125 C-851.54961623 397.64974549 -848.52518848 394.57988815 -845.70703125 391.265625 C-842.69100254 387.72633348 -839.45004578 384.46818655 -836.14453125 381.203125 C-832.90155962 377.99969577 -829.71516961 374.8120526 -826.76953125 371.328125 C-822.90837115 366.78222715 -818.6401985 362.64626644 -814.38134766 358.47705078 C-811.36235601 355.50219396 -808.47372657 352.477752 -805.70703125 349.265625 C-801.43209117 344.31318326 -796.77310782 339.78134569 -792.10546875 335.203125 C-788.88964437 332.02454955 -785.77190559 328.8274781 -782.83203125 325.390625 C-777.78480664 319.53080867 -772.19070095 314.19234459 -766.6875 308.76660156 C-760.06219286 302.26561174 -760.06219286 302.26561174 -753.828125 295.39453125 C-748.90156421 289.63832648 -743.45608744 284.36614204 -738.09301758 279.02124023 C-736.21124851 277.14483025 -734.33488387 275.26313531 -732.45898438 273.38085938 C-727.08057607 267.99946517 -721.71755698 262.6641014 -715.91821289 257.73168945 C-712.61312776 254.88335663 -709.49211454 251.83509367 -706.33203125 248.828125 C-701.03843293 243.82844573 -695.67151886 239.03861513 -689.97265625 234.5 C-686.51642171 231.69300289 -683.17952772 228.76308538 -679.83203125 225.828125 C-673.44250213 220.25585189 -666.90747628 214.93201009 -660.18359375 209.76953125 C-658.72298226 208.64749062 -657.26493938 207.5221032 -655.80859375 206.39453125 C-615.39442566 175.10817371 -572.18630815 147.76151118 -527.07958984 123.76464844 C-525.15365123 122.74000167 -523.22943352 121.71211232 -521.30712891 120.68066406 C-457.11271758 86.26000814 -387.39692392 60.97792548 -317.14453125 42.203125 C-316.28504883 41.97214111 -315.42556641 41.74115723 -314.54003906 41.50317383 C-234.43783946 20.00923344 -152.12846357 8.04405542 -69.45703125 2.515625 C-68.54983337 2.45477722 -67.6426355 2.39392944 -66.70794678 2.33123779 C-44.47085717 0.85748498 -22.28661819 0.04091299 0 0 Z " fill="#DBAF53" transform="translate(2152.14453125,-0.203125)"/>
<path d="M0 0 C3.35837604 0.00565668 6.71674699 0.00846732 10.07512665 0.0110817 C45.30451121 0.05088968 80.34209541 0.72006812 115.48729706 3.31805801 C116.69410126 3.40527115 117.90090546 3.49248428 119.14427948 3.58234024 C228.56279405 11.50364028 337.32028353 27.61202101 444.02245331 53.23602676 C444.8443364 53.43335403 445.66621948 53.6306813 446.51300812 53.83398819 C449.54660493 54.570159 452.52434294 55.33040664 455.48729706 56.31805801 C455.15729706 56.97805801 454.82729706 57.63805801 454.48729706 58.31805801 C453.58060272 58.24804581 452.67390839 58.1780336 451.73973846 58.10589981 C437.78973433 57.11603688 423.84159875 57.11727024 409.86229706 57.13055801 C408.5911908 57.1314946 407.32008453 57.13243118 406.0104599 57.13339615 C387.08490868 57.16362271 368.32921845 57.39488903 349.48729706 59.31805801 C348.73390045 59.39346817 347.98050385 59.46887833 347.20427704 59.54657364 C266.56635677 67.65353524 188.44295908 88.27764411 37.48729706 153.31805801 C35.87999725 154.10527237 35.87999725 154.10527237 34.24022675 154.90839005 C19.77622881 162.00525356 5.56196969 169.47899984 -8.51270294 177.31805801 C-9.41778595 177.8188588 -10.32286896 178.31965958 -11.25537872 178.83563614 C-25.93459718 186.96566482 -40.3000654 195.56872631 -54.60674286 204.33050919 C-57.98308742 206.39477543 -61.37444478 208.42999859 -64.78614044 210.43524551 C-77.2452499 217.76096107 -89.25931329 225.69494567 -101.23880768 233.77095413 C-105.32646697 236.52544622 -109.42711216 239.25962231 -113.53614044 241.98212051 C-144.27359682 262.35641832 -174.37555697 283.70583276 -203.51270294 306.31805801 C-204.57591519 307.13523226 -205.63972685 307.95162717 -206.70410919 308.76727676 C-214.0915978 314.42845641 -221.4235876 320.15713023 -228.73340607 325.91815567 C-230.52713391 327.32941191 -232.32409415 328.73644782 -234.12207794 330.14227676 C-241.3271845 335.7792246 -248.45268058 341.49958951 -255.51270294 347.31805801 C-257.22057878 348.71445108 -258.92892443 350.1102697 -260.63770294 351.50555801 C-262.04753937 352.65997471 -263.45734828 353.81442516 -264.86670685 354.9694252 C-266.05354018 355.94184693 -267.24076262 356.91379382 -268.42823029 357.88544083 C-277.09792198 364.98273868 -285.70306102 372.14198384 -294.18848419 379.45868301 C-297.42324034 382.24723337 -300.68442782 385.00346677 -303.95020294 387.75555801 C-313.87314368 396.13246167 -323.69775096 404.62164354 -333.32129669 413.34149551 C-335.3680909 415.18762363 -337.43401851 417.00799085 -339.51270294 418.81805801 C-344.22973172 422.92888229 -348.86840003 427.12548061 -353.51270294 431.31805801 C-355.17911145 432.8183448 -356.84577647 434.31834674 -358.51270294 435.81805801 C-359.34028107 436.56313614 -360.16785919 437.30821426 -361.02051544 438.07587051 C-362.66010173 439.55098419 -364.30069949 441.02497453 -365.94239044 442.49774551 C-372.50805079 448.39215624 -379.02005602 454.34352755 -385.51270294 460.31805801 C-386.02703888 460.79114395 -386.54137482 461.26422989 -387.07129669 461.75165176 C-395.24441844 469.27255432 -403.38022695 476.83306232 -411.48877716 484.42352676 C-412.88313878 485.72874343 -414.27802675 487.03339796 -415.67334747 488.33758926 C-427.08332353 498.99274047 -427.08332353 498.99274047 -438.14160919 510.00946426 C-440.04128777 511.85906894 -441.96189666 513.56656918 -443.97754669 515.28290176 C-450.1390034 520.62962039 -455.7819677 526.51929257 -461.51270294 532.31805801 C-463.78049151 534.61276776 -466.05180003 536.90391177 -468.32520294 539.19305801 C-468.82753448 539.7036879 -469.32986603 540.21431778 -469.84741974 540.7404213 C-472.5391716 543.45016791 -475.29829281 546.02019352 -478.20012665 548.5044899 C-482.54752382 552.29472566 -486.62417882 556.30931608 -490.6818924 560.40546036 C-491.84219971 561.57036751 -491.84219971 561.57036751 -493.02594757 562.75880814 C-494.69279304 564.43276482 -496.35850881 566.10784705 -498.02319527 567.78395081 C-500.66627196 570.44455038 -503.31299029 573.10147763 -505.96074677 575.75741959 C-513.48424755 583.30525442 -521.00212507 590.85866698 -528.51538849 598.41669083 C-533.1236569 603.05232452 -537.73734868 607.6825242 -542.35381889 612.30998993 C-544.10225382 614.06459406 -545.8487944 615.82108816 -547.59332466 617.57957458 C-556.23892408 626.2937215 -564.76348849 634.82954356 -574.51270294 642.31805801 C-575.54167317 643.17975322 -576.56501107 644.0482838 -577.57910919 644.92743301 C-642.66333698 700.7430149 -728.57997141 727.67721079 -833.13770294 742.63055801 C-834.43659454 742.77791397 -835.73548615 742.92526993 -837.0737381 743.07709122 C-841.55001091 743.5460367 -846.02727944 743.94843616 -850.51270294 744.31805801 C-851.53994476 744.40419357 -852.56718658 744.49032913 -853.62555695 744.57907486 C-875.87299769 746.38344381 -898.04631531 746.681408 -920.35618973 746.63611603 C-923.18018145 746.63047313 -926.00416716 746.62765408 -928.82816315 746.62503433 C-955.62111157 746.58891228 -982.28551189 746.24339203 -1008.96692657 743.57129288 C-1011.64773531 743.304626 -1014.3295424 743.05047864 -1017.01172638 742.79803848 C-1054.98533501 739.19055587 -1093.25753921 734.66968046 -1130.51270294 726.31805801 C-1128.41422584 724.21958091 -1127.16991656 723.66825573 -1124.43457794 722.65399551 C-1123.61062531 722.34107559 -1122.78667267 722.02815567 -1121.93775177 721.70575333 C-1121.05498566 721.37156387 -1120.17221954 721.03737442 -1119.26270294 720.69305801 C-1098.61889849 712.61385115 -1081.06705175 699.90165101 -1064.51270294 685.31805801 C-1063.77793732 684.6825502 -1063.04317169 684.04704239 -1062.28614044 683.39227676 C-1060.34951707 681.71412703 -1058.42946057 680.01884296 -1056.51270294 678.31805801 C-1055.75860138 677.65676895 -1055.00449982 676.99547989 -1054.22754669 676.31415176 C-1048.94819235 671.63719601 -1043.89547579 666.79234325 -1038.974617 661.74310684 C-1036.38064584 659.10188256 -1033.72043895 656.61128621 -1030.90418243 654.20734024 C-1026.12489958 650.0413747 -1021.66192933 645.59280654 -1017.19434357 641.09735489 C-1015.81990737 639.72067719 -1014.44547105 638.34399963 -1013.07102966 636.96732712 C-1011.60911579 635.50206444 -1010.14845801 634.03556034 -1008.68816376 632.56868362 C-1005.6300743 629.49695309 -1002.568068 626.42914653 -999.50550079 623.36188126 C-993.00491809 616.85024711 -986.50858448 610.33438146 -980.01270294 603.81805801 C-972.99730943 596.78058774 -965.98116665 589.74387408 -958.96011305 582.71204996 C-955.92265978 579.66964762 -952.88765345 576.62483241 -949.85456848 573.57807541 C-948.4187947 572.13660486 -946.98185318 570.69631047 -945.54439545 569.25651932 C-943.80136833 567.51064957 -942.06011548 565.76300564 -940.32109833 564.01314163 C-936.1502632 559.84193049 -931.89799152 555.85539898 -927.4281311 552.00764084 C-924.15709442 549.12228732 -921.1010235 546.02877379 -918.03028107 542.93329239 C-916.97978828 541.88060921 -916.97978828 541.88060921 -915.90807343 540.8066597 C-914.40161941 539.29642713 -912.89632068 537.78504142 -911.39208221 536.27260208 C-909.00570341 533.87335218 -906.61612078 531.47733413 -904.22571564 529.0820961 C-899.15188916 523.99689302 -894.08200479 518.90777107 -889.01270294 513.81805801 C-883.13414751 507.91583297 -877.25395003 502.01526349 -871.36949921 496.11891556 C-869.02555224 493.76852847 -866.68465916 491.41512931 -864.3438797 489.06158829 C-862.89444439 487.60851745 -861.4448668 486.15558851 -859.99512482 484.70282364 C-859.35385147 484.05638397 -858.71257812 483.40994431 -858.05187225 482.74391556 C-854.99497463 479.68666677 -851.89244369 476.74294842 -848.61597443 473.9213295 C-843.98705103 469.91986791 -839.6890699 465.61959241 -835.37793732 461.28094864 C-834.50204453 460.40359558 -833.62615173 459.52624252 -832.72371674 458.62230301 C-830.8342007 456.72900009 -828.94560846 454.83482832 -827.0585556 452.93907547 C-824.0676781 449.93455278 -821.07288015 446.93395783 -818.07752228 443.93390274 C-811.71959813 437.56492882 -805.36592406 431.19172282 -799.01270294 424.81805801 C-792.15128859 417.93456469 -785.28912373 411.05182938 -778.42204714 404.17398405 C-775.45149619 401.19848525 -772.48339224 398.22057432 -769.51721191 395.24071884 C-767.22930677 392.9435299 -764.93810981 390.64962753 -762.64746857 388.35516739 C-761.83788193 387.54041443 -761.02829529 386.72566147 -760.19417572 385.88621902 C-759.42905167 385.12102448 -758.66392761 384.35582993 -757.87561798 383.56744766 C-757.22231758 382.91192665 -756.56901718 382.25640564 -755.8959198 381.58102036 C-753.88094585 379.66771979 -751.82849652 377.84679092 -749.72667027 376.0311842 C-745.55548319 372.40203378 -741.62826938 368.5734806 -737.72631073 364.65864944 C-736.61478161 363.54946031 -736.61478161 363.54946031 -735.48079735 362.41786331 C-733.01827527 359.95930428 -730.55931257 357.49721717 -728.10034943 355.03509903 C-726.32750534 353.26361107 -724.55444882 351.49233567 -722.78119659 349.72125626 C-718.47732475 345.42146189 -714.17578989 341.11934265 -709.87540989 336.81605691 C-706.37826293 333.31664544 -702.88013368 329.81821869 -699.38131142 326.32048225 C-698.88207601 325.82140008 -698.38284061 325.32231791 -697.86847686 324.80811204 C-696.85407447 323.7940294 -695.83966986 322.779949 -694.82526303 321.7658708 C-685.3281616 312.27161637 -675.83411957 302.77430736 -666.34113223 293.27593964 C-658.20743005 285.13777013 -650.0711097 277.00222593 -641.93286896 268.86859512 C-632.46693842 259.40802414 -623.00264257 249.94582272 -613.54092461 240.48103851 C-612.53071139 239.47050677 -611.5204961 238.4599771 -610.5102787 237.44944954 C-610.01331963 236.95233619 -609.51636056 236.45522284 -609.00434212 235.94304546 C-605.51340033 232.45124266 -602.02130451 228.9605966 -598.52875328 225.47040367 C-593.82238733 220.767146 -589.11869822 216.06122283 -584.41677094 211.35352707 C-582.69352572 209.62896266 -580.96943463 207.90524298 -579.24442482 206.18244362 C-576.88466051 203.8254239 -574.52801713 201.46532595 -572.17211151 199.10445023 C-571.49369672 198.42826615 -570.81528192 197.75208208 -570.11630911 197.05540758 C-566.24608759 193.16940407 -562.5606464 189.17327477 -558.98331696 185.01559395 C-557.26306172 183.0298961 -555.46609383 181.14222831 -553.61035919 179.28290176 C-552.94713654 178.61839005 -552.28391388 177.95387833 -551.60059357 177.26922989 C-550.93221466 176.60471817 -550.26383575 175.94020645 -549.57520294 175.25555801 C-548.91069122 174.58717911 -548.2461795 173.9188002 -547.56153107 173.23016739 C-543.61237008 169.28866724 -539.55245787 165.53677248 -535.32788849 161.8925209 C-532.96174856 159.840169 -530.67834898 157.7040302 -528.38770294 155.56805801 C-522.62823231 150.32282583 -516.58657459 145.52308607 -510.40918732 140.7819252 C-508.48955534 139.30019074 -506.586291 137.79926204 -504.68457794 136.29462051 C-477.13374519 114.65043234 -446.80947511 96.92953753 -415.51270294 81.31805801 C-414.46082794 80.79083145 -413.40895294 80.26360489 -412.32520294 79.72040176 C-387.46999646 67.32386753 -361.77888576 57.29691334 -335.51270294 48.31805801 C-334.33353302 47.91232559 -333.1543631 47.50659317 -331.93946075 47.08856583 C-260.88735663 22.82734099 -186.14335214 10.5110313 -111.51270294 4.13055801 C-110.15636246 4.01220093 -110.15636246 4.01220093 -108.77262115 3.89145279 C-72.55786165 0.7722193 -36.33337262 -0.06226175 0 0 Z " fill="#278AC4" transform="translate(2503.5127029418945,293.681941986084)"/>
<path d="M0 0 C66.14424317 -1.0698624 132.12169347 5.62241324 197.32177734 16.31640625 C198.38644226 16.48893921 199.45110718 16.66147217 200.54803467 16.8392334 C203.53436917 17.32640186 206.51817793 17.82657446 209.50146484 18.33203125 C210.84464783 18.55046692 210.84464783 18.55046692 212.21496582 18.77331543 C214.30519357 19.13634133 216.37902642 19.59180538 218.44677734 20.06640625 C218.77677734 20.72640625 219.10677734 21.38640625 219.44677734 22.06640625 C217.65046875 22.7934375 217.65046875 22.7934375 215.81787109 23.53515625 C194.51762601 32.25719196 175.99396925 43.05795701 158.44677734 58.06640625 C157.37308901 58.96677873 156.29884193 59.86648521 155.22412109 60.765625 C148.96953557 66.02918951 142.87764562 71.44625224 136.91748047 77.04101562 C135.87897068 78.01572437 135.87897068 78.01572437 134.8194809 79.01012421 C128.26317224 85.19280928 121.86804864 91.52755658 115.51747131 97.92054749 C113.53383621 99.91730511 111.5467787 101.91060591 109.55895996 103.90319824 C105.35200576 108.12139018 101.14909062 112.34359153 96.94677734 116.56640625 C92.03976632 121.49718207 87.13102471 126.42621138 82.21806335 131.35105896 C80.27515911 133.30036909 78.33532413 135.25269669 76.39562988 137.2052002 C75.19472953 138.40973561 73.99368713 139.61412942 72.79248047 140.81835938 C72.26663361 141.34937256 71.74078674 141.88038574 71.19900513 142.42749023 C68.39272319 145.23416041 65.51526774 147.9053227 62.51208496 150.50109863 C58.52046952 153.95915243 54.7740958 157.61103528 51.05615234 161.359375 C50.36557739 162.05141022 49.67500244 162.74344543 48.96350098 163.45645142 C47.47832756 164.94540279 45.99430943 166.43550727 44.51135254 167.92666626 C42.15857999 170.29231261 39.80260146 172.65472453 37.44580078 175.01635742 C32.44330331 180.03023019 27.44474872 185.04802225 22.44677734 190.06640625 C16.65082897 195.88602633 10.85323726 201.70398937 5.0513916 207.51773071 C2.74068263 209.83487862 0.43302843 212.15503884 -1.87451172 214.4753418 C-3.303724 215.90818969 -4.73307861 217.34089565 -6.16259766 218.7734375 C-6.79452026 219.41052643 -7.42644287 220.04761536 -8.07751465 220.70401001 C-11.12264538 223.74949541 -14.21645018 226.67910501 -17.4786377 229.49182129 C-21.9014348 233.31559689 -26.01869629 237.40598468 -30.13720703 241.55273438 C-30.9545784 242.37156601 -31.77194977 243.19039764 -32.61408997 244.03404236 C-34.37591184 245.79964872 -36.13657828 247.56640867 -37.89619446 249.33421326 C-40.685844 252.13670656 -43.47860917 254.93607293 -46.27233887 257.73449707 C-52.20228761 263.67549011 -58.12798305 269.62071711 -64.05322266 275.56640625 C-70.4526992 281.98796905 -76.85293032 288.40876918 -83.25807619 294.82467794 C-86.47238203 298.04472097 -89.68275772 301.26865141 -92.89245605 304.49328613 C-94.58456757 306.18903239 -96.27682088 307.88463716 -97.96923828 309.58007812 C-98.72272049 310.33872665 -99.4762027 311.09737518 -100.2525177 311.87901306 C-101.32447639 312.9510775 -101.32447639 312.9510775 -102.41809082 314.0447998 C-103.02714516 314.65607475 -103.63619949 315.2673497 -104.26371002 315.89714813 C-106.18224431 317.7149132 -108.13676873 319.43454202 -110.14162731 321.15439034 C-115.42457374 325.75447428 -120.33405164 330.71839177 -125.27388 335.68026733 C-126.34105036 336.74843538 -127.40844557 337.81637883 -128.47604436 338.88411868 C-131.39198734 341.80169828 -134.30481306 344.72237246 -137.21713245 347.64356852 C-140.3653401 350.80023978 -143.51649554 353.95396592 -146.66732788 357.10801697 C-152.12258955 362.56956529 -157.57612422 368.03283307 -163.02858925 373.49717331 C-170.92282238 381.40841786 -178.82079603 389.31592003 -186.71986904 397.22233184 C-199.55121233 410.06561196 -212.38105028 422.91039448 -225.20922852 435.75683594 C-225.97638831 436.52508586 -226.74354811 437.29333578 -227.53395518 438.084866 C-238.418545 448.98506311 -249.30163886 459.88675263 -260.18413313 470.78904183 C-261.33350847 471.94050714 -261.33350847 471.94050714 -262.50610352 473.11523438 C-263.27141415 473.88193854 -264.03672478 474.6486427 -264.82522664 475.43858032 C-277.6012009 488.237616 -290.38105548 501.03276905 -303.16407651 513.82476676 C-311.04052918 521.70706117 -318.91371653 529.5925892 -326.78268864 537.48235168 C-332.17801905 542.89142568 -337.57698607 548.29685203 -342.97878901 553.69946216 C-346.09156124 556.81293595 -349.20269163 559.9280043 -352.30939674 563.04753304 C-355.15929183 565.90912928 -358.01386947 568.76596982 -360.87207284 571.61926694 C-361.89935051 572.64639464 -362.92496582 573.67518856 -363.94863824 574.70590942 C-369.74884932 580.54395234 -375.68966828 585.9915483 -382.13443154 591.1135174 C-384.39715009 592.94039604 -386.54546985 594.84062892 -388.67822266 596.81640625 C-418.64170498 623.68757189 -454.83183666 644.01956577 -490.55322266 662.06640625 C-491.38160645 662.48599609 -492.20999023 662.90558594 -493.06347656 663.33789062 C-571.834702 702.89069515 -660.11558145 722.35299142 -858.55322266 743.06640625 C-860.01953362 743.13911234 -861.48584244 743.21186176 -862.95214844 743.28466797 C-963.14634796 748.03064274 -1064.3965416 741.09748902 -1322.74072266 703.19140625 C-1323.43583954 703.05211826 -1324.13095642 702.91283028 -1324.84713745 702.76932144 C-1337.53759323 700.22364084 -1350.22933397 697.66543647 -1362.85400391 694.80859375 C-1363.54262009 694.65802521 -1364.23123627 694.50745667 -1364.9407196 694.35232544 C-1366.49498291 693.98913546 -1368.0281672 693.53741288 -1369.55322266 693.06640625 C-1369.88322266 692.40640625 -1370.21322266 691.74640625 -1370.55322266 691.06640625 C-1369.51041138 691.1118457 -1369.51041138 691.1118457 -1368.4465332 691.15820312 C-1289.05115779 694.51066721 -1210.78591495 687.10384192 -1082.55322266 652.06640625 C-1081.83368408 651.83457642 -1081.11414551 651.60274658 -1080.37280273 651.3638916 C-1046.30957419 640.34999894 -1013.06197847 627.04691511 -980.55322266 612.06640625 C-979.33308101 611.50667636 -978.11286374 610.94711128 -976.89257812 610.38769531 C-953.35229694 599.58357631 -930.13542154 588.25938183 -907.48144531 575.68652344 C-904.38018559 573.97066888 -901.2699886 572.27179843 -898.15869141 570.57421875 C-883.3682867 562.47267525 -868.89386214 553.96011633 -854.5353241 545.12182617 C-850.91360574 542.89413766 -847.2768939 540.69363724 -843.62744141 538.51171875 C-829.5990339 530.10745365 -815.99411766 521.15376719 -802.44189453 512.01074219 C-799.47476494 510.01359715 -796.49476696 508.0372576 -793.5090332 506.06811523 C-776.54413601 494.86259061 -759.96395398 483.06510758 -743.55322266 471.06640625 C-742.78026855 470.50211914 -742.00731445 469.93783203 -741.2109375 469.35644531 C-730.52836339 461.54969765 -719.9512815 453.61648287 -709.46972656 445.54199219 C-707.68066515 444.16452885 -705.88902463 442.7905174 -704.09619141 441.41796875 C-691.43575769 431.71888517 -678.95454322 421.81621929 -666.59863281 411.73242188 C-664.54932294 410.06322988 -662.49543132 408.39985515 -660.43994141 406.73828125 C-653.60728816 401.21178655 -646.81981822 395.64329985 -640.13012695 389.94433594 C-636.84673958 387.14966011 -633.52860755 384.40526736 -630.17822266 381.69140625 C-624.4766421 377.04904531 -618.9361894 372.23133498 -613.39306641 367.40234375 C-610.30238875 364.71119462 -607.19183454 362.04456483 -604.07250977 359.38671875 C-598.28672683 354.45598943 -592.606265 349.43830127 -587.00244141 344.30078125 C-584.22822394 341.76991619 -581.40615144 339.30001234 -578.57275391 336.8359375 C-574.52655882 333.29062537 -570.54638644 329.6711772 -566.55322266 326.06640625 C-564.88681415 324.56611946 -563.22014913 323.06611753 -561.55322266 321.56640625 C-560.72435547 320.82003906 -559.89548828 320.07367188 -559.04150391 319.3046875 C-557.41545991 317.8420137 -555.78791803 316.38100292 -554.15869141 314.921875 C-547.78691275 309.20889091 -541.4931744 303.41510868 -535.21337891 297.6015625 C-533.60994988 296.11886225 -532.00400639 294.63894789 -530.39697266 293.16015625 C-514.14220074 278.29640359 -514.14220074 278.29640359 -498.40942383 262.88964844 C-496.62073825 261.13272303 -494.77414832 259.50401923 -492.86572266 257.87890625 C-488.38010138 253.9792631 -484.21615653 249.8051677 -480.05322266 245.56640625 C-478.6287171 244.11595341 -477.20164801 242.6680136 -475.77197266 241.22265625 C-475.15257812 240.59166016 -474.53318359 239.96066406 -473.89501953 239.31054688 C-472.00323173 237.49764931 -470.0841853 235.80396001 -468.0925293 234.10571289 C-462.68149397 229.3796226 -457.64617663 224.28368865 -452.58251953 219.19335938 C-451.5009617 218.1098785 -450.4191731 217.02662793 -449.33717346 215.94358826 C-447.02172385 213.62499611 -444.70783248 211.30486429 -442.39515686 208.98350525 C-438.73216326 205.3069007 -435.06527926 201.63419254 -431.39782715 197.96203613 C-423.61331586 190.16646112 -415.83304644 182.36665888 -408.05322266 174.56640625 C-399.65201857 166.14314165 -391.2500743 157.72062333 -382.84322596 149.30299139 C-379.20365048 145.6584579 -375.56652151 142.01150617 -371.9312973 138.36263275 C-369.66322047 136.08705472 -367.39303607 133.81358803 -365.12229729 131.54066658 C-364.0765949 130.4931049 -363.03175075 129.44468563 -361.98787117 128.39530754 C-356.35415017 122.73286823 -350.64120409 117.24206465 -344.55322266 112.06640625 C-343.50434416 111.14159023 -342.45712828 110.21488016 -341.41259766 109.28515625 C-303.79242791 76.22116683 -259.44272083 52.19551893 -212.55322266 35.06640625 C-211.39580566 34.64262695 -210.23838867 34.21884766 -209.04589844 33.78222656 C-142.24242952 9.67033502 -70.66906502 1.32073558 0 0 Z " fill="#37A346" transform="translate(1370.55322265625,64.93359375)"/>
<path d="M0 0 C0 3.90371341 -1.11501091 4.56247618 -3.75 7.375 C-4.57757812 8.26574219 -5.40515625 9.15648437 -6.2578125 10.07421875 C-6.70543945 10.55036621 -7.15306641 11.02651367 -7.61425781 11.51708984 C-9.00485014 13.00519023 -10.37562864 14.50935315 -11.7421875 16.01953125 C-21.2578759 26.50247369 -31.02554645 37.00252613 -41.859375 46.140625 C-44.29041958 48.25226227 -46.63106905 50.44687224 -48.97753906 52.65161133 C-54.49733459 57.83578331 -60.0763157 62.84760906 -65.9921875 67.58203125 C-68.26871146 69.41211999 -70.51906789 71.26139217 -72.7578125 73.13671875 C-82.75865378 81.49796065 -93.03072416 89.41818873 -103.51660156 97.16064453 C-105.90258022 98.927845 -108.276876 100.70961149 -110.6484375 102.49609375 C-122.21218216 111.16890224 -134.12832089 119.24611563 -146.21582031 127.16943359 C-148.73379795 128.82497519 -151.23989091 130.4966791 -153.7421875 132.17578125 C-169.79616878 142.88325374 -186.48545691 150.04306528 -204.56884766 156.73095703 C-206.78693958 157.55133855 -209.00292502 158.37744817 -211.21630859 159.21044922 C-269.63861531 181.17392538 -331.14611234 195.89776978 -393 204 C-393.67109802 204.08896545 -394.34219604 204.17793091 -395.03363037 204.26959229 C-405.23695479 205.61790926 -415.45289231 206.77023769 -425.69586182 207.77282715 C-427.96246716 207.99629951 -430.22801351 208.22887411 -432.49365234 208.46191406 C-459.78540823 211.20549962 -487.10025257 211.2676537 -514.5 211.25 C-515.85031311 211.24959969 -515.85031311 211.24959969 -517.22790527 211.24919128 C-529.06406378 211.24363698 -540.89847764 211.17965485 -552.73369598 211.02812958 C-554.9426602 211.00071171 -557.15163708 210.9778159 -559.36065674 210.9553833 C-563.26459377 210.91230598 -567.16713473 210.83112972 -571.0703125 210.7421875 C-572.18853394 210.73012268 -573.30675537 210.71805786 -574.4588623 210.70562744 C-582.34097668 210.47107926 -587.14172592 209.00954815 -592.93359375 203.39453125 C-593.95646484 202.20923828 -593.95646484 202.20923828 -595 201 C-595.60972656 200.40574219 -596.21945312 199.81148437 -596.84765625 199.19921875 C-604.82019619 190.9916162 -608.01300812 180.15168533 -608.375 169 C-607.76027275 127.81327396 -573.85039423 90.99407461 -547.37060547 62.48388672 C-545.54073086 60.50277202 -543.7339411 58.50126508 -541.92724609 56.49902344 C-540.56405214 55.00170485 -539.17997528 53.52602968 -537.79296875 52.05078125 C-535.38192343 49.47287575 -533.18235983 46.77185743 -531.0324707 43.97338867 C-524.73585868 37.18892601 -524.73585868 37.18892601 -519.58813477 36.62866211 C-518.32283936 36.76022705 -517.05754395 36.89179199 -515.75390625 37.02734375 C-514.66721901 37.12657639 -514.66721901 37.12657639 -513.55857849 37.22781372 C-511.93096103 37.3789968 -510.30449103 37.54289825 -508.67919922 37.71731567 C-505.82804096 38.01814353 -502.97534807 38.27497946 -500.11914062 38.52319336 C-495.69363474 38.90884297 -491.26949636 39.30662373 -486.84594727 39.71411133 C-473.90472244 40.89756295 -460.95393646 41.96628462 -448 43 C-446.8754541 43.08997253 -445.7509082 43.17994507 -444.59228516 43.27264404 C-409.65488618 46.01985494 -374.71735976 46.30859681 -339.69083786 46.36791611 C-336.2650733 46.37484314 -332.83935263 46.3864887 -329.41360474 46.39907837 C-237.90404076 46.6892397 -146.52893328 37.69854796 0 0 Z " fill="#F6C851" transform="translate(795,814)"/>
<path d="M0 0 C14.09722484 1.99019645 28.45606923 11.71521218 36.9375 22.75 C44.59232249 34.69225913 45.84925061 48.1754155 42.91748047 61.88525391 C34.58712951 96.41849925 10.7206512 125.67115794 -13.18359375 150.97265625 C-14.12343149 151.98080635 -15.06218294 152.98996992 -16 154 C-16.5256958 154.55655273 -17.0513916 155.11310547 -17.59301758 155.68652344 C-21.23056344 159.66650627 -24.04416011 163.70046048 -26.83203125 168.3203125 C-32.24326377 176.47234528 -38.53924248 183.67926369 -48 187 C-66.20068363 190.26733366 -85.99593403 187.35855081 -104.28196335 185.78081799 C-114.27561642 184.92162203 -124.16476631 184.67093034 -134.1875 184.8125 C-135.61994739 184.82295375 -137.05240248 184.83240249 -138.48486328 184.84082031 C-141.95114115 184.86573381 -145.41671673 184.9112982 -148.88262939 184.96679688 C-151.07780165 185.00122003 -153.27300441 185.03014933 -155.46826172 185.05859375 C-242.0032391 186.25084628 -329.18424594 195.07628312 -443.125 224.22070312 C-445.0121875 224.7843457 -445.0121875 224.7843457 -446.9375 225.359375 C-448.59072266 225.86936035 -448.59072266 225.86936035 -450.27734375 226.38964844 C-453 227 -453 227 -456 226 C-455.21496094 225.154375 -454.42992188 224.30875 -453.62109375 223.4375 C-452.55983839 222.29171987 -451.49864376 221.14588349 -450.4375 220 C-449.92380859 219.44699219 -449.41011719 218.89398438 -448.88085938 218.32421875 C-446.15000828 215.37286415 -443.46966401 212.39204722 -440.8515625 209.34008789 C-436.77836549 204.67876146 -432.44776996 200.30375727 -428.06640625 195.93359375 C-427.22963852 195.09586929 -426.39287079 194.25814484 -425.53074646 193.39503479 C-423.77131896 191.63493065 -422.01064347 189.87607323 -420.2487793 188.1184082 C-417.57030589 185.44529028 -414.89721127 182.76687749 -412.22460938 180.08789062 C-410.50552885 178.36947097 -408.78613811 176.65136158 -407.06640625 174.93359375 C-406.27657852 174.14174179 -405.48675079 173.34988983 -404.67298889 172.53404236 C-400.47498296 168.35350289 -396.20002544 164.32676971 -391.70477295 160.46665955 C-389.31332865 158.40923917 -387.00455766 156.26548561 -384.6875 154.125 C-380.27646827 150.10619407 -375.76264642 146.27134676 -371.1171875 142.52734375 C-368.78762058 140.64952084 -366.48742603 138.73975883 -364.1953125 136.81640625 C-354.52412001 128.72249963 -344.58908374 121.10222472 -334.36865234 113.71582031 C-332.03638585 112.02635743 -329.71443843 110.3235696 -327.39453125 108.6171875 C-317.49424058 101.35868147 -307.41705524 94.49415814 -297 88 C-296.00242676 87.37609375 -295.00485352 86.7521875 -293.97705078 86.109375 C-272.7168353 72.86478839 -251.01099924 60.70441312 -228.4375 49.8125 C-227.0920813 49.1620874 -227.0920813 49.1620874 -225.71948242 48.49853516 C-219.60311252 45.60557207 -213.37824105 43.24649999 -207 41 C-205.87464844 40.57074219 -204.74929687 40.14148438 -203.58984375 39.69921875 C-202.71457031 39.36535156 -201.83929687 39.03148437 -200.9375 38.6875 C-199.58978516 38.16736328 -199.58978516 38.16736328 -198.21484375 37.63671875 C-196 37 -196 37 -194 38 C-193.67 37.34 -193.34 36.68 -193 36 C-192.34 36.33 -191.68 36.66 -191 37 C-190.67 36.34 -190.34 35.68 -190 35 C-189.34 35.33 -188.68 35.66 -188 36 C-187.67 35.34 -187.34 34.68 -187 34 C-186.34 34.33 -185.68 34.66 -185 35 C-185 34.34 -185 33.68 -185 33 C-184.05125 32.855625 -183.1025 32.71125 -182.125 32.5625 C-179.1065506 32.17064601 -179.1065506 32.17064601 -177 31 C-176.34 31.33 -175.68 31.66 -175 32 C-174.67 31.34 -174.34 30.68 -174 30 C-172.0625 29.3125 -172.0625 29.3125 -170 29 C-169.34 29.33 -168.68 29.66 -168 30 C-167.67 29.34 -167.34 28.68 -167 28 C-165.0625 27.3125 -165.0625 27.3125 -163 27 C-162.34 27.33 -161.68 27.66 -161 28 C-160.67 27.34 -160.34 26.68 -160 26 C-158.22265625 25.33203125 -158.22265625 25.33203125 -156.0625 24.8125 C-154.99708984 24.54373047 -154.99708984 24.54373047 -153.91015625 24.26953125 C-152 24 -152 24 -150 25 C-149.67 24.34 -149.34 23.68 -149 23 C-148.01 23.33 -147.02 23.66 -146 24 C-145.67 23.34 -145.34 22.68 -145 22 C-144.01 22.33 -143.02 22.66 -142 23 C-141.67 22.34 -141.34 21.68 -141 21 C-140.01 21.33 -139.02 21.66 -138 22 C-137.67 21.34 -137.34 20.68 -137 20 C-136.01 20.33 -135.02 20.66 -134 21 C-134 20.34 -134 19.68 -134 19 C-132.68 19.33 -131.36 19.66 -130 20 C-130 19.34 -130 18.68 -130 18 C-129.12988281 17.92652344 -129.12988281 17.92652344 -128.2421875 17.8515625 C-123.5225422 17.39984727 -119.50121381 16.53232811 -115 15 C-113.00174752 14.74625365 -111.00306435 14.49369622 -109 14.28125 C-106.73236108 14.01093725 -106.73236108 14.01093725 -103.5625 13 C-99.96877318 11.99123458 -96.62241514 11.55851694 -92.91796875 11.24609375 C-90.91861024 11.0966996 -90.91861024 11.0966996 -89 10 C-87.35822222 9.79724185 -85.71118573 9.63557474 -84.0625 9.5 C-81.10840763 9.25636352 -78.83108535 8.94369512 -76 8 C-74.46136792 7.8250292 -72.91888609 7.68258003 -71.375 7.5625 C-67.92898566 7.25150598 -64.67353028 6.75613859 -61.3125 5.9375 C-57.47591818 5.01563582 -53.9537172 4.92247613 -50 5 C-48.66326539 4.68057948 -47.3299969 4.34640604 -46 4 C-43.01036889 3.57375556 -40.00490723 3.29774233 -37 3 C-36.0925 2.90589844 -35.185 2.81179687 -34.25 2.71484375 C-30.07071884 2.30272019 -25.95165909 1.943111 -21.75 2 C-18.05619243 2.10463419 -18.05619243 2.10463419 -14.6875 1.4375 C-9.69756284 0.84547356 -4.97260011 1.41551717 0 2 C0 1.34 0 0.68 0 0 Z " fill="#D8AD47" transform="translate(2637,60)"/>
<path d="M0 0 C26.03446966 2.21359069 41.26924871 15.9932711 59.125 34.125 C65.77371464 40.91740181 65.77371464 40.91740181 72.8046875 47.3046875 C79.49113577 53.03951898 85.5401664 59.48722321 91.72753906 65.74804688 C99.15558868 73.34441315 99.15558868 73.34441315 107 80.5 C113.63584473 86.14811941 119.60716179 92.55501391 125.72753906 98.74804688 C133.14308335 106.33361177 133.14308335 106.33361177 140.9765625 113.4765625 C147.13547061 118.71729218 152.69422479 124.62851491 158.375 130.375 C160.71327915 132.73984331 163.05484369 135.10136242 165.3984375 137.4609375 C165.93173676 138.0025351 166.46503601 138.54413269 167.01449585 139.10214233 C169.74014611 141.90213794 169.74014611 141.90213794 173 144 C173.33 96.48 173.66 48.96 174 0 C178.62 0 183.24 0 188 0 C188 68.31 188 136.62 188 207 C178.53616287 198.8881396 169.45146063 190.59614208 160.6796875 181.7421875 C159.72695434 180.78503019 158.7739141 179.82817846 157.82058716 178.87161255 C154.83584461 175.87559966 151.85511203 172.87561794 148.875 169.875 C145.40778987 166.38399392 141.93884917 162.89474186 138.46564102 159.4097023 C137.09444709 158.03213198 135.72635984 156.65147155 134.35836792 155.27072144 C130.67469994 151.57270496 126.99429359 147.93137174 123.03173828 144.53173828 C118.41838063 140.56894812 114.15920534 136.27236875 109.87966919 131.95483398 C108.40068091 130.46285757 106.91839498 128.97422447 105.43530273 127.48632812 C101.75552613 123.79331846 98.08127373 120.09482888 94.40686035 116.39648438 C91.28954371 113.25929696 88.17008912 110.12426398 85.04788208 106.99194336 C83.60134931 105.53902092 82.15790833 104.08307719 80.71459961 102.62695312 C79.8200708 101.72912109 78.92554199 100.83128906 78.00390625 99.90625 C77.22861572 99.12572266 76.4533252 98.34519531 75.65454102 97.54101562 C72.21066564 94.24442269 68.58781044 91.13933414 65 88 C56.42 79.42 47.84 70.84 39 62 C38.67 109.85 38.34 157.7 38 207 C33.71 207 29.42 207 25 207 C24.99120064 203.9150116 24.99120064 203.9150116 24.98222351 200.7677002 C24.92542449 181.34729358 24.85227777 161.92699693 24.76428509 142.50670624 C24.71944022 132.52352458 24.67999986 122.54037769 24.65356445 112.55712891 C24.63049238 103.84932596 24.59699265 95.1416341 24.55129844 86.43391943 C24.52748968 81.82906324 24.50868043 77.22431623 24.50238609 72.61940002 C24.49627881 68.27239374 24.47607915 63.92566637 24.44572449 59.57876396 C24.43703365 57.99552292 24.43320274 56.41224528 24.43499184 54.8289814 C24.44670307 39.66349668 23.80911409 23.21074996 13.5625 11.125 C9.32427033 7.61037052 5.21018099 4.83888741 0 3 C0 2.01 0 1.02 0 0 Z " fill="#231F20" transform="translate(1618,1256)"/>
<path d="M0 0 C17.82 0 35.64 0 54 0 C54 0.99 54 1.98 54 3 C53.28714844 3.23074219 52.57429687 3.46148438 51.83984375 3.69921875 C42.33415994 6.93601283 36.68223937 9.7660526 31.9453125 18.81640625 C30.19142225 22.86774777 29.87689181 26.3702344 29.88647461 30.77832031 C29.88655014 31.9392218 29.88662567 33.10012329 29.88670349 34.29620361 C29.89186478 35.54423767 29.89702606 36.79227173 29.90234375 38.078125 C29.90446617 40.00069122 29.90446617 40.00069122 29.90663147 41.96209717 C29.91044099 45.3618364 29.92025786 48.7615326 29.93133545 52.16125488 C29.94158326 55.633539 29.9461363 59.1058301 29.95117188 62.578125 C29.96188159 69.38543429 29.97893916 76.19271508 30 83 C31.10408203 82.07550049 31.10408203 82.07550049 32.23046875 81.13232422 C33.20628906 80.3229541 34.18210937 79.51358398 35.1875 78.6796875 C36.15042969 77.87772949 37.11335937 77.07577148 38.10546875 76.24951172 C51.46197561 65.86937894 68.70467443 63.77682483 85.125 65.625 C96.7312643 67.18597798 106.32326213 71.12603118 115 79 C115.92039062 79.78310547 115.92039062 79.78310547 116.859375 80.58203125 C131.01336939 93.45214562 135.19575988 113.80297803 136.10498047 132.11425781 C136.88918737 153.49729064 133.64017596 176.16443144 119.75 193.25 C110.84904805 202.75341813 98.27405913 209.35963782 85.16015625 210.17700195 C57.92627851 210.71575537 57.92627851 210.71575537 48 206 C47.19304687 205.63777344 46.38609375 205.27554687 45.5546875 204.90234375 C39.5310912 201.8905456 34.89277902 197.58212638 30 193 C29.67 197.62 29.34 202.24 29 207 C11.18 207 -6.64 207 -25 207 C-25 206.01 -25 205.02 -25 204 C-23.82244141 203.67128906 -23.82244141 203.67128906 -22.62109375 203.3359375 C-15.08138576 201.06014834 -9.04452006 198.83761163 -4.7265625 191.9765625 C-1.66747515 186.14043132 -0.85101652 181.18565294 -0.84178162 174.60955811 C-0.83684364 173.86293388 -0.83190566 173.11630965 -0.82681805 172.34706044 C-0.8114554 169.84433158 -0.80308577 167.34162836 -0.79467773 164.83886719 C-0.78509824 163.04519424 -0.77508812 161.25152355 -0.76467896 159.45785522 C-0.73763155 154.58636104 -0.71662107 149.71485718 -0.69667697 144.84332943 C-0.67481643 139.75305858 -0.64742807 134.66281757 -0.62062073 129.5725708 C-0.57069478 119.93249404 -0.52575557 110.29240071 -0.48259836 100.65229154 C-0.43322517 89.67778086 -0.37830734 78.70330013 -0.32291877 67.72881842 C-0.20910021 45.15257217 -0.10299285 22.57629841 0 0 Z M35.0078125 92.69140625 C30.50083645 97.87355186 28.50316389 101.41491168 28.37133789 108.37548828 C28.35308456 109.08860672 28.33483124 109.80172516 28.31602478 110.53645325 C28.26298176 112.8812669 28.24035119 115.22498119 28.22265625 117.5703125 C28.20215608 119.21450974 28.18151884 120.85870528 28.16075134 122.50289917 C28.12331828 125.94763655 28.10388069 129.39199464 28.09399414 132.83691406 C28.07768597 137.22279876 27.99208088 141.60434784 27.88930607 145.98893929 C27.82183654 149.38657891 27.80464561 152.78320156 27.80059624 156.1814537 C27.79042588 157.79616982 27.76224196 159.41088831 27.71470833 161.02493668 C27.50085472 168.87823869 27.51746089 175.1007677 32.82504177 181.2758007 C35.11220024 183.65845841 37.50824602 185.8296117 40 188 C41.33641359 189.30936349 42.67056403 190.62105249 44 191.9375 C51.13709697 197.98112869 60.09890814 201.32672305 69.37109375 201.21875 C77.40856563 200.54995591 84.04331766 196.26712816 89.5 190.5 C104.1203264 172.94269854 105.69344535 147.36665017 103.78173828 125.50390625 C101.77093535 108.28662699 96.87644378 91.75057794 82.96484375 80.40234375 C65.69119988 68.07383848 47.79811746 79.83030624 35.0078125 92.69140625 Z " fill="#231F20" transform="translate(768,1256)"/>
<path d="M0 0 C8.37302647 -0.02345415 16.74603859 -0.04107988 25.11909008 -0.05181217 C29.00949982 -0.05697021 32.89988665 -0.06393431 36.7902832 -0.07543945 C66.56751668 -0.16100668 66.56751668 -0.16100668 79.0625 0.42578125 C79.84815842 0.46267563 80.63381683 0.49957001 81.44328308 0.5375824 C102.51904431 1.7083057 126.97698461 5.85438566 142 22 C152.55314479 35.34446383 155.4382441 50.30018363 154 67 C152.32336279 79.51662159 147.63373469 91.23051225 137.53125 99.3125 C112.54925348 115.96716435 87.03867799 114 57 114 C57 144.69 57 175.38 57 207 C46.44 207 35.88 207 25 207 C24.99413376 204.75240372 24.98826752 202.50480743 24.98222351 200.18910217 C24.92554636 179.01529867 24.85246136 157.84159715 24.76428509 136.66790104 C24.71934609 125.7821099 24.679927 114.89635133 24.65356445 104.01049805 C24.63056908 94.52085742 24.59715374 85.03132005 24.55129844 75.54176134 C24.52738708 70.51850289 24.50864459 65.49534658 24.50238609 60.47203255 C24.49632585 55.74011247 24.4762919 51.00845365 24.44572449 46.2766304 C24.43695935 44.54370502 24.43321851 42.81074548 24.43499184 41.07779884 C24.44347944 28.95195822 24.08480834 19.24103273 15.328125 9.94921875 C11.61615491 6.84137802 7.59282177 5.37050454 3 4 C2.01 3.67 1.02 3.34 0 3 C0 2.01 0 1.02 0 0 Z M57 11 C57 41.03 57 71.06 57 102 C85.24286418 103.84878205 85.24286418 103.84878205 109 93 C117.28678522 84.58402214 120.08857091 73.01527512 120.25 61.5 C120.10875106 48.08135097 116.82428655 35.49281872 108.6875 24.625 C93.63027063 9.91793875 77.81702493 11 57 11 Z " fill="#231F20" transform="translate(67,1256)"/>
<path d="M0 0 C17.82 0 35.64 0 54 0 C54 0.99 54 1.98 54 3 C53.21496094 3.21914062 52.42992187 3.43828125 51.62109375 3.6640625 C43.2016942 6.20537819 37.25533663 8.95703119 32.625 16.625 C30.60382739 20.82282003 29.87440788 23.98604164 29.87974548 28.61907959 C29.87837082 29.54172104 29.87699615 30.46436249 29.87557983 31.41496277 C29.87917511 32.41981216 29.88277039 33.42466156 29.88647461 34.45996094 C29.88632858 35.52368423 29.88618256 36.58740753 29.8860321 37.68336487 C29.88672894 41.20038897 29.89451067 44.71736015 29.90234375 48.234375 C29.90420874 50.67246471 29.90563226 53.1105548 29.90663147 55.54864502 C29.91045024 61.96674636 29.9202751 68.38482508 29.93133545 74.80291748 C29.9415633 81.35168146 29.94613204 87.90044909 29.95117188 94.44921875 C29.96189791 107.29948882 29.97877456 120.14974321 30 133 C31.21345093 131.88612915 31.21345093 131.88612915 32.45141602 130.74975586 C33.53140078 129.75893877 34.6113982 128.76813546 35.69140625 127.77734375 C36.22237915 127.28987671 36.75335205 126.80240967 37.30041504 126.3001709 C40.49626529 123.36890618 43.70710613 120.45576002 46.9375 117.5625 C51.90238091 113.10602289 56.80134952 108.58051938 61.69921875 104.05078125 C80.00423672 87.12280841 80.00423672 87.12280841 87 81 C87.70640625 80.26136719 88.4128125 79.52273438 89.140625 78.76171875 C93.4337359 76.11664632 97.38061219 76.56875748 102.3125 76.75 C103.24384766 76.76804687 104.17519531 76.78609375 105.13476562 76.8046875 C107.42424197 76.85165112 109.71158184 76.91730525 112 77 C108.29826973 81.47803132 104.45405838 85.61579253 100.125 89.5 C98.97854982 90.54359359 97.83274649 91.58789811 96.6875 92.6328125 C96.08808594 93.1784082 95.48867188 93.72400391 94.87109375 94.28613281 C90.91646829 97.90845415 87.0199162 101.59321312 83.11303711 105.2668457 C79.67226588 108.5000164 76.22318166 111.72318892 72.75390625 114.92578125 C72.07118652 115.55758301 71.3884668 116.18938477 70.68505859 116.84033203 C69.38707099 118.04059776 68.08674094 119.23833705 66.78369141 120.43310547 C63.88099794 123.12143634 61.22540655 125.69804298 59 129 C65.24634297 137.23671856 71.51011469 145.45302165 78 153.5 C82.81695711 159.4734407 87.49376493 165.542987 92.13574219 171.65307617 C95.77329166 176.42885825 99.48279052 181.13848145 103.25 185.8125 C106.97120298 190.43831495 110.65911364 195.08449962 114.25 199.8125 C114.97703125 200.76769531 115.7040625 201.72289062 116.453125 202.70703125 C118 205 118 205 118 207 C112.91434444 207.32403702 107.83480365 207.5583513 102.74121094 207.71411133 C101.01390906 207.77907052 99.28731069 207.86748932 97.5625 207.98071289 C83.69912802 208.8672306 83.69912802 208.8672306 79.30307007 205.82608032 C75.79252993 202.36846036 73.45831045 198.23560246 71 194 C69.81239594 192.40571382 68.59813068 190.83062237 67.34765625 189.28515625 C66.80496094 188.58712891 66.26226563 187.88910156 65.703125 187.16992188 C65.16171875 186.47447266 64.6203125 185.77902344 64.0625 185.0625 C63.17111328 183.9168457 63.17111328 183.9168457 62.26171875 182.74804688 C58.68629954 178.15601169 55.0993971 173.57325706 51.5 169 C47.13159285 163.44858542 42.77964822 157.88447957 38.4375 152.3125 C37.52484375 151.14364258 37.52484375 151.14364258 36.59375 149.95117188 C36.02527344 149.22091797 35.45679688 148.49066406 34.87109375 147.73828125 C34.36505615 147.08899658 33.85901855 146.43971191 33.33764648 145.77075195 C32.16781661 144.22215256 31.07655605 142.61483408 30 141 C29.67 162.78 29.34 184.56 29 207 C11.18 207 -6.64 207 -25 207 C-25 206.01 -25 205.02 -25 204 C-24.3709375 203.85304688 -23.741875 203.70609375 -23.09375 203.5546875 C-15.80756185 201.64535506 -9.85070754 199.08459587 -5.4296875 192.75 C-1.87337602 186.57217891 -0.85176993 181.72214715 -0.84178162 174.60955811 C-0.83684364 173.86293388 -0.83190566 173.11630965 -0.82681805 172.34706044 C-0.8114554 169.84433158 -0.80308577 167.34162836 -0.79467773 164.83886719 C-0.78509824 163.04519424 -0.77508812 161.25152355 -0.76467896 159.45785522 C-0.73763155 154.58636104 -0.71662107 149.71485718 -0.69667697 144.84332943 C-0.67481643 139.75305858 -0.64742807 134.66281757 -0.62062073 129.5725708 C-0.57069478 119.93249404 -0.52575557 110.29240071 -0.48259836 100.65229154 C-0.43322517 89.67778086 -0.37830734 78.70330013 -0.32291877 67.72881842 C-0.20910021 45.15257217 -0.10299285 22.57629841 0 0 Z " fill="#231F20" transform="translate(491,1256)"/>
<path d="M0 0 C17.82 0 35.64 0 54 0 C54.02578125 7.68023438 54.0515625 15.36046875 54.078125 23.2734375 C54.10330244 28.14977261 54.12964239 33.02604624 54.16015625 37.90234375 C54.20843939 45.63590703 54.2525038 53.36932797 54.27099609 61.10302734 C54.28618115 67.34072177 54.32066051 73.57804289 54.36830902 79.81557083 C54.38310358 82.19086073 54.3910399 84.56620394 54.39188385 86.94153976 C54.39426094 90.2783221 54.42140225 93.61407902 54.45410156 96.95068359 C54.4490712 97.9246106 54.44404083 98.8985376 54.43885803 99.90197754 C54.57502803 108.9305954 57.37768962 118.50947689 64 125 C71.9620057 131.29925752 81.36917976 130.95265496 91 130 C99.60519186 128.71343945 109.3438173 124.93311003 115 118 C115.4578481 115.73059283 115.4578481 115.73059283 115.39872742 113.15950012 C115.41753464 111.66400887 115.41753464 111.66400887 115.4367218 110.13830566 C115.43456917 108.49940369 115.43456917 108.49940369 115.43237305 106.82739258 C115.4425647 105.67603317 115.45275635 104.52467377 115.46325684 103.33842468 C115.4935084 99.52374482 115.50267158 95.70931556 115.51171875 91.89453125 C115.52855637 89.2532212 115.54670535 86.61191922 115.56611633 83.97062683 C115.60981107 77.72337685 115.63833965 71.47615303 115.66143972 65.22879666 C115.68847554 58.11633022 115.73238797 51.00399945 115.77772844 43.89162982 C115.87061725 29.26115469 115.94005054 14.63064826 116 0 C125.57 0 135.14 0 145 0 C145 46.86 145 93.72 145 142 C135.43 142 125.86 142 116 142 C115.505 137.545 115.505 137.545 115 133 C114.39414062 133.45890625 113.78828125 133.9178125 113.1640625 134.390625 C98.02559646 145.47664013 82.05386875 147.03990274 63.63671875 144.69970703 C51.21969523 142.33384211 39.82184307 135.95230617 32 126 C24.78181675 114.38275228 23.70982001 103.55475937 23.84967041 90.24862671 C23.87547273 87.76703465 23.8882978 85.28565946 23.89794922 82.80395508 C23.92452158 76.64388778 23.97298093 70.48402931 24.02075195 64.32409668 C24.06037283 59.10583631 24.09158304 53.88765339 24.11187744 48.66928101 C24.12473236 46.23811702 24.149742 43.80727934 24.17529297 41.3762207 C24.2487813 30.44118561 24.15179648 19.99220583 16.5703125 11.375 C11.79001801 6.80055551 6.24116815 4.91862312 0 3 C0 2.01 0 1.02 0 0 Z " fill="#231F20" transform="translate(906,1321)"/>
<path d="M0 0 C17.82 0 35.64 0 54 0 C54.02578125 7.42886719 54.0515625 14.85773438 54.078125 22.51171875 C54.10331213 27.23766399 54.12965956 31.96354643 54.16015625 36.68945312 C54.20837816 44.17911968 54.25246547 51.66864071 54.27099609 59.15844727 C54.28621763 65.20164437 54.3207609 71.24445897 54.36830902 77.28748512 C54.38306619 79.58493525 54.39103774 81.88244 54.39188385 84.17993736 C54.01019475 104.47312433 54.01019475 104.47312433 62.1875 122.5625 C68.4627259 128.78510346 74.48878853 130.37419005 83.25 130.5 C95.79990095 130.34871352 106.05137495 126.94862505 115 118 C115.31399672 115.82676979 115.31399672 115.82676979 115.2784729 113.27975464 C115.28963638 112.28413513 115.30079987 111.28851562 115.31230164 110.26272583 C115.31446182 109.16652924 115.31662201 108.07033264 115.31884766 106.94091797 C115.32889328 105.78970459 115.3389389 104.63849121 115.34928894 103.45239258 C115.3802765 99.63232949 115.39719936 95.81233695 115.4140625 91.9921875 C115.43276161 89.34945054 115.45233406 86.70671963 115.4727478 84.06399536 C115.51958152 77.80963653 115.5563033 71.55526055 115.58942068 65.3008157 C115.62760971 58.18113849 115.67702823 51.06155321 115.72740483 43.94195342 C115.83079296 29.29470132 115.91854835 14.64739098 116 0 C125.57 0 135.14 0 145 0 C145 46.86 145 93.72 145 142 C135.43 142 125.86 142 116 142 C115.505 137.545 115.505 137.545 115 133 C113.906875 133.886875 112.81375 134.77375 111.6875 135.6875 C97.69556112 146.21263049 81.41673071 146.74739641 64.52246094 144.69970703 C56.1492961 143.21059638 48.82929992 140.01621145 42 135 C41.28199219 134.47535156 40.56398438 133.95070313 39.82421875 133.41015625 C31.69708118 126.90538513 26.99449626 118.13751513 25 108 C24.52550821 102.64185873 24.59990482 97.251664 24.61987495 91.87709045 C24.6290783 89.16810747 24.61865777 86.45980304 24.60325623 83.75085449 C24.56340666 76.05608006 24.56195172 68.3613645 24.56420898 60.66650391 C24.56426031 55.94101031 24.54498887 51.21588595 24.51487541 46.49049377 C24.50413246 43.83712062 24.51612862 41.18447676 24.52870178 38.53112793 C24.50622364 28.23026375 23.55768674 20.5458058 17.875 11.6875 C12.79695481 6.94063167 6.84955208 4.1375149 0 3 C0 2.01 0 1.02 0 0 Z " fill="#231F20" transform="translate(1830,1321)"/>
<path d="M0 0 C17.82 0 35.64 0 54 0 C54.495 6.435 54.495 6.435 55 13 C56.6396875 11.6696875 56.6396875 11.6696875 58.3125 10.3125 C71.44729154 0.49621586 85.86262766 -1.56453541 101.87890625 0.5 C116.20156045 3.08542271 128.93240587 7.80932191 137.8125 19.8125 C143.99116176 29.23101688 146.15925345 38.14144444 146.12939453 49.33764648 C146.13202301 50.56102974 146.13202301 50.56102974 146.13470459 51.80912781 C146.13909248 54.49647168 146.13619342 57.18374924 146.1328125 59.87109375 C146.133487 61.75472527 146.13445825 63.6383567 146.13571167 65.52198792 C146.13718499 69.47194242 146.13504797 73.4218743 146.13037109 77.37182617 C146.12470932 82.39452922 146.12793245 87.4171784 146.13394356 92.43987942 C146.13758929 96.3341969 146.13639173 100.22850201 146.13381577 104.1228199 C146.1331557 105.97207712 146.13394215 107.82133552 146.13629532 109.67059135 C146.14704326 120.50198525 145.8502427 131.19972241 145 142 C135.43 142 125.86 142 116 142 C115.9906543 138.91237305 115.98130859 135.82474609 115.97167969 132.64355469 C115.93781994 122.40958233 115.88222095 112.1758097 115.81609726 101.94199753 C115.77669124 95.74094376 115.74446892 89.54003054 115.72900391 83.33886719 C115.71379224 77.34754358 115.67926623 71.35660656 115.63169098 65.36545563 C115.61692371 63.08671694 115.60896168 60.80792304 115.60811615 58.52913666 C115.80969971 36.54021877 115.80969971 36.54021877 105 18 C100.08451491 13.27775265 94.77780338 11.38675055 88 11 C73.88639993 11.74576486 64.7363375 18.2636625 55 28 C54.89220145 29.47972808 54.85318144 30.96452972 54.84178162 32.44813538 C54.82709839 33.88901772 54.82709839 33.88901772 54.81211853 35.35900879 C54.80636307 36.42139771 54.8006076 37.48378662 54.79467773 38.57836914 C54.78477814 39.69042221 54.77487854 40.80247528 54.76467896 41.94822693 C54.73295477 45.64384798 54.70826353 49.33948191 54.68359375 53.03515625 C54.66303364 55.58963872 54.64203744 58.14411771 54.62062073 60.69859314 C54.57096433 66.74758491 54.52572441 72.7965943 54.48259836 78.84563488 C54.43326753 85.73068575 54.37833405 92.61568831 54.32291877 99.50069249 C54.20902395 113.66708505 54.10294105 127.83352383 54 142 C44.43 142 34.86 142 25 142 C24.98598145 136.71669678 24.98598145 136.71669678 24.97167969 131.32666016 C24.93786865 119.67175654 24.88249608 108.01700989 24.81609726 96.36225319 C24.77637471 89.29797638 24.74394797 82.23380987 24.72900391 75.16943359 C24.71455333 68.34820319 24.6793647 61.52732724 24.63169098 54.70624924 C24.61688703 52.1076696 24.60895956 49.50904113 24.60811615 46.91041946 C24.60574193 43.26233983 24.57862283 39.61520179 24.54589844 35.96728516 C24.5509288 34.89985077 24.55595917 33.83241638 24.56114197 32.7326355 C24.45312531 24.91743702 23.04141008 17.8566334 18.10546875 11.59765625 C12.4322317 7.05675572 7.31993708 4.10908138 0 3 C0 2.01 0 1.02 0 0 Z " fill="#231F20" transform="translate(1075,1321)"/>
<path d="M0 0 C17.82 0 35.64 0 54 0 C54.495 5.94 54.495 5.94 55 12 C56.588125 10.9275 58.17625 9.855 59.8125 8.75 C75.0039901 -0.92087127 91.6692781 -1.9562022 109.03515625 1.8984375 C122.47919059 5.33753261 133.60273062 13.18703912 140.7109375 25.1171875 C144.21027328 32.9429748 145.43880989 40.15258007 145.34057617 48.68212891 C145.34101425 49.69796051 145.34145233 50.71379211 145.34190369 51.76040649 C145.33983136 55.08266132 145.31657399 58.404397 145.29296875 61.7265625 C145.28736726 64.04397303 145.28309978 66.36138713 145.28010559 68.67880249 C145.26870039 74.75166791 145.23927053 80.82431502 145.20599365 86.89709473 C145.17519931 93.10454354 145.16158029 99.31202793 145.14648438 105.51953125 C145.11439657 117.67979841 145.06166406 129.83984682 145 142 C135.43 142 125.86 142 116 142 C115.98541748 139.03354492 115.97083496 136.06708984 115.95581055 133.01074219 C115.90532464 123.17592605 115.83870514 113.34126591 115.76428509 103.50660324 C115.71968345 97.54771037 115.68040496 91.58888426 115.65356445 85.62988281 C115.62742954 79.8720247 115.58695551 74.11442492 115.53681374 68.3567276 C115.52021372 66.16730224 115.50865693 63.97783227 115.50238609 61.78835297 C115.66141294 38.24848705 115.66141294 38.24848705 104.625 18.1875 C99.49641571 13.40735456 94.11196306 10.81966496 87 11 C74.54357692 12.64713032 63.11236874 16.96960099 55 27 C53.75597092 30.84424026 53.79820063 34.44927587 53.88647461 38.46484375 C53.8754068 39.58767258 53.86433899 40.7105014 53.85293579 41.86735535 C53.8270327 45.55863309 53.86429533 49.24637452 53.90234375 52.9375 C53.8966888 55.50440609 53.88707551 58.07130626 53.87367249 60.63818359 C53.85158873 66.69098584 53.86925595 72.74246141 53.90644604 78.79515076 C53.94657367 85.69010808 53.93552309 92.58469261 53.92032993 99.47971535 C53.89023635 113.65355769 53.93065771 127.82630359 54 142 C44.43 142 34.86 142 25 142 C24.970271 136.89059937 24.970271 136.89059937 24.93994141 131.67797852 C24.87296599 120.41026923 24.7954253 109.14264908 24.71247292 97.87504673 C24.66244723 91.04505696 24.61600358 84.21507859 24.578125 77.38500977 C24.5415443 70.79081151 24.49480613 64.19673507 24.44193649 57.60264397 C24.42343679 55.08975398 24.4083126 52.57683676 24.39665604 50.06390572 C24.37971804 46.53799595 24.35066423 43.01237491 24.31884766 39.48657227 C24.31668747 38.45294556 24.31452728 37.41931885 24.31230164 36.35437012 C24.19381462 26.04215146 22.74357922 18.05663191 16 10 C11.28621056 5.92900003 5.91962799 4.54425078 0 3 C0 2.01 0 1.02 0 0 Z " fill="#231F20" transform="translate(2266,1321)"/>
<path d="M0 0 C17.82 0 35.64 0 54 0 C54 4.29 54 8.58 54 13 C55.381875 11.948125 56.76375 10.89625 58.1875 9.8125 C72.33599434 -0.10955933 88.25538839 -1.79554455 105 1.0625 C117.8197563 3.52920755 129.86226568 9.7667837 137.7734375 20.37890625 C143.50801006 29.31644738 145.46175155 38.16057642 145.34057617 48.68212891 C145.34101425 49.69796051 145.34145233 50.71379211 145.34190369 51.76040649 C145.33983136 55.08266132 145.31657399 58.404397 145.29296875 61.7265625 C145.28736726 64.04397303 145.28309978 66.36138713 145.28010559 68.67880249 C145.26870039 74.75166791 145.23927053 80.82431502 145.20599365 86.89709473 C145.17519931 93.10454354 145.16158029 99.31202793 145.14648438 105.51953125 C145.11439657 117.67979841 145.06166406 129.83984682 145 142 C135.43 142 125.86 142 116 142 C115.98541748 139.00325195 115.97083496 136.00650391 115.95581055 132.91894531 C115.90532748 122.98434533 115.83870845 113.04989983 115.76428509 103.11545181 C115.71968108 97.09602463 115.68040308 91.07666359 115.65356445 85.05712891 C115.62743195 79.24091745 115.58695955 73.42496184 115.53681374 67.60890961 C115.52021211 65.39715524 115.50865631 63.18535668 115.50238609 60.97354889 C115.61827409 37.93446979 115.61827409 37.93446979 105 18 C99.78567763 13.68587009 93.9264554 10.49943263 87 11 C74.52977607 12.70115747 63.13519488 16.941378 55 27 C53.75597092 30.84424026 53.79820063 34.44927587 53.88647461 38.46484375 C53.8754068 39.58767258 53.86433899 40.7105014 53.85293579 41.86735535 C53.8270327 45.55863309 53.86429533 49.24637452 53.90234375 52.9375 C53.8966888 55.50440609 53.88707551 58.07130626 53.87367249 60.63818359 C53.85158873 66.69098584 53.86925595 72.74246141 53.90644604 78.79515076 C53.94657367 85.69010808 53.93552309 92.58469261 53.92032993 99.47971535 C53.89023635 113.65355769 53.93065771 127.82630359 54 142 C44.43 142 34.86 142 25 142 C24.97812622 136.85301514 24.97812622 136.85301514 24.95581055 131.60205078 C24.90540301 120.24651419 24.83894543 108.89110905 24.76428509 97.53570747 C24.71942213 90.65305239 24.67998593 83.77044794 24.65356445 76.88769531 C24.62803586 70.24158384 24.58706754 63.59568131 24.53681374 56.94970322 C24.52016921 54.41810808 24.50863995 51.88647382 24.50238609 49.3548317 C24.49271908 45.80027972 24.46462718 42.24630367 24.43237305 38.69189453 C24.43452568 37.13282127 24.43452568 37.13282127 24.4367218 35.54225159 C24.31575108 26.07374237 22.6558573 17.11225894 16 10 C11.20837002 5.98840281 5.94020536 4.54961879 0 3 C0 2.01 0 1.02 0 0 Z " fill="#231F20" transform="translate(1376,1321)"/>
<path d="M0 0 C1.010625 0.556875 2.02125 1.11375 3.0625 1.6875 C12.72640739 9.29525688 17.33035123 17.65851584 18.7928009 29.84086609 C19.11092993 33.15595375 19.14250946 36.46236639 19.1328125 39.7890625 C19.13479141 40.91900635 19.13479141 40.91900635 19.1368103 42.07177734 C19.13874481 44.58955817 19.13230762 47.10723006 19.125 49.625 C19.12367065 50.9367923 19.12367065 50.9367923 19.12231445 52.27508545 C19.08991629 80.18548317 18.50506663 108.09506856 18 136 C8.43 136 -1.14 136 -11 136 C-11.495 127.09 -11.495 127.09 -12 118 C-14.475 120.475 -14.475 120.475 -17 123 C-22.53247324 127.64277792 -28.55234074 130.91762742 -35.125 133.8125 C-35.78153564 134.10237793 -36.43807129 134.39225586 -37.11450195 134.69091797 C-45.59642289 138.28443185 -53.21463284 139.36300999 -62.375 139.375 C-63.35210938 139.39949219 -64.32921875 139.42398437 -65.3359375 139.44921875 C-74.50377498 139.48579257 -82.68598002 137.14952239 -89.47265625 130.74609375 C-98.66914504 120.23246078 -99.91005538 106.33650399 -99.1640625 92.95214844 C-98.30280693 82.70423247 -93.84804105 73.33462935 -86.375 66.25 C-66.65235333 50.47926942 -35.05912941 46.57545064 -11 42 C-11.05265042 38.54050457 -11.14789178 35.08336104 -11.25 31.625 C-11.26417969 30.65949219 -11.27835938 29.69398437 -11.29296875 28.69921875 C-11.51870441 21.97229606 -12.50331664 15.86293776 -16 10 C-25.26953675 1.97854498 -37.46837979 3.36604492 -49 4 C-60.31190795 5.59801147 -70.70981025 11.51525127 -77.9375 20.375 C-78.288125 20.91125 -78.63875 21.4475 -79 22 C-81.64 21.67 -84.28 21.34 -87 21 C-87.33 20.01 -87.66 19.02 -88 18 C-81.54413582 5.82497686 -70.76289656 -0.80038365 -58 -5 C-40.63056213 -9.77783964 -15.90021143 -9.10584795 0 0 Z M-58 69 C-66.23030364 77.45892318 -67.33679159 88.02002539 -67.38720703 99.20922852 C-67.25646525 107.33505079 -65.75909635 114.19791738 -60.6484375 120.7265625 C-56.17820994 124.99700335 -50.23027473 127.06178121 -44.140625 126.9453125 C-31.5669282 125.34916964 -22.8389943 118.65759703 -14 110 C-13.46884079 109.57575241 -12.93768158 109.15150482 -12.39042664 108.71440125 C-10.4260894 106.29236608 -10.63857615 104.61120467 -10.65942383 101.51879883 C-10.65965042 100.39786331 -10.65987701 99.2769278 -10.66011047 98.12202454 C-10.67559433 96.91257675 -10.69107819 95.70312897 -10.70703125 94.45703125 C-10.71339851 92.59893074 -10.71339851 92.59893074 -10.71989441 90.70329285 C-10.73385267 87.41350999 -10.76079787 84.12416797 -10.79400635 80.83453369 C-10.82472067 77.47633254 -10.83840261 74.11806682 -10.85351562 70.75976562 C-10.88662641 64.17300426 -10.93685743 57.5865382 -11 51 C-25.54143651 51 -47.1683512 59.19367718 -58 69 Z " fill="#231F20" transform="translate(1344,1327)"/>
<path d="M0 0 C1.010625 0.556875 2.02125 1.11375 3.0625 1.6875 C12.53694091 9.14610242 17.36122292 17.49400713 18.7950592 29.48469543 C19.23182293 34.84523765 19.12134429 40.22326089 19.09375 45.59765625 C19.08994298 46.95719859 19.08632669 48.31674147 19.08288574 49.67628479 C19.02768614 66.10817118 18.78086995 82.53869231 18.53643799 98.96862793 C18.47447123 103.16721283 18.41510182 107.36583454 18.35546875 111.56445312 C18.23942173 119.7096724 18.12041751 127.85484416 18 136 C8.43 136 -1.14 136 -11 136 C-11.495 127.09 -11.495 127.09 -12 118 C-12.86625 118.99 -13.7325 119.98 -14.625 121 C-26.93990493 133.24056949 -45.16221729 139.15146092 -62.125 139.3125 C-63.12015625 139.34150391 -64.1153125 139.37050781 -65.140625 139.40039062 C-74.41616881 139.47909955 -82.59213194 137.22578759 -89.47265625 130.75 C-98.76584078 120.10205455 -99.86882407 106.57433641 -99.1640625 93.06640625 C-98.34664495 82.77083762 -93.88109841 73.36596856 -86.375 66.25 C-66.65235333 50.47926942 -35.05912941 46.57545064 -11 42 C-11.08174173 38.4991057 -11.19450268 34.99984507 -11.3125 31.5 C-11.33505859 30.51773437 -11.35761719 29.53546875 -11.38085938 28.5234375 C-11.65145288 21.14361471 -12.52814431 15.17810018 -17.1875 9.1875 C-23.73735949 4.09316484 -30.29997297 3.50038162 -38.3125 3.625 C-39.24022217 3.63370117 -40.16794434 3.64240234 -41.1237793 3.65136719 C-47.7760978 3.79378762 -53.79444042 4.45637841 -60 7 C-60.70898438 7.2784375 -61.41796875 7.556875 -62.1484375 7.84375 C-69.03387868 10.90394608 -74.64734053 15.89288394 -79 22 C-81.64 21.67 -84.28 21.34 -87 21 C-87.33 20.01 -87.66 19.02 -88 18 C-86.375 15.1875 -86.375 15.1875 -84 12 C-83.278125 11.01 -82.55625 10.02 -81.8125 9 C-64.26748433 -11.36285152 -22.38548706 -12.81988246 0 0 Z M-58 69 C-66.51551106 77.98105153 -67.48416219 87.75070475 -67.42407227 99.66162109 C-67.16171639 109.0551982 -64.81101266 116.35115431 -58 123 C-52.27374061 126.69025605 -46.30748616 127.59599758 -39.6875 126.4375 C-29.31095806 123.7274753 -21.52361803 117.36921542 -14 110 C-13.46884079 109.57575241 -12.93768158 109.15150482 -12.39042664 108.71440125 C-10.4260894 106.29236608 -10.63857615 104.61120467 -10.65942383 101.51879883 C-10.65965042 100.39786331 -10.65987701 99.2769278 -10.66011047 98.12202454 C-10.67559433 96.91257675 -10.69107819 95.70312897 -10.70703125 94.45703125 C-10.71339851 92.59893074 -10.71339851 92.59893074 -10.71989441 90.70329285 C-10.73385267 87.41350999 -10.76079787 84.12416797 -10.79400635 80.83453369 C-10.82472067 77.47633254 -10.83840261 74.11806682 -10.85351562 70.75976562 C-10.88662641 64.17300426 -10.93685743 57.5865382 -11 51 C-25.28185728 51 -47.50913494 59.07240286 -58 69 Z " fill="#231F20" transform="translate(2234,1327)"/>
<path d="M0 0 C7.27183168 6.11469153 11.01543987 13.81155143 13 23 C13.08632237 24.55046412 13.12202719 26.1041792 13.12025452 27.65704346 C13.12231651 29.05362686 13.12231651 29.05362686 13.12442017 30.47842407 C13.11902725 31.99972427 13.11902725 31.99972427 13.11352539 33.55175781 C13.11367142 34.62523468 13.11381744 35.69871155 13.1139679 36.80471802 C13.11327103 40.35420754 13.10548914 43.90364464 13.09765625 47.453125 C13.09579127 49.91363496 13.09436774 52.3741453 13.09336853 54.83465576 C13.08954967 61.31194076 13.07972472 67.78920335 13.06866455 74.26647949 C13.0584369 80.87556658 13.053868 87.48465728 13.04882812 94.09375 C13.03810192 107.06251143 13.02051019 120.03125035 13 133 C3.43 133 -6.14 133 -16 133 C-16.495 124.09 -16.495 124.09 -17 115 C-18.32 116.32 -19.64 117.64 -21 119 C-34.06082511 130.71415811 -50.91430751 136.25652931 -68.25 136.5 C-69.16088379 136.51869141 -70.07176758 136.53738281 -71.01025391 136.55664062 C-80.45731994 136.46756584 -88.3458947 133.50819956 -95.24609375 126.984375 C-102.94083267 118.27852339 -104.35105884 108.33791159 -104.3125 97.125 C-104.32861328 96.19558594 -104.34472656 95.26617188 -104.36132812 94.30859375 C-104.36951781 82.56458754 -100.85692597 73.70793231 -93.171875 64.90625 C-80.29125142 52.12395179 -60.86994505 49.49179293 -43.89970398 45.44271851 C-34.84736699 43.26643099 -25.92209076 40.65251347 -17 38 C-16.91815577 35.02026385 -16.85910236 32.04283168 -16.8125 29.0625 C-16.78736328 28.23169922 -16.76222656 27.40089844 -16.73632812 26.54492188 C-16.65221802 19.33948962 -17.84892656 12.55516968 -22.1875 6.625 C-28.42886893 0.79972233 -35.54327035 0.4736923 -43.6875 0.5625 C-44.65776123 0.57007324 -45.62802246 0.57764648 -46.62768555 0.58544922 C-57.97790585 0.84485037 -68.23824626 3.34426646 -77 11 C-78.21102324 12.4599702 -79.39902495 13.93936246 -80.5625 15.4375 C-83.38329843 18.89759153 -83.38329843 18.89759153 -86.140625 19.35546875 C-89.51337683 18.99756883 -91.58419289 18.41580711 -94 16 C-86.81724341 3.83156531 -77.20976003 -3.85762322 -63.63671875 -8.03515625 C-43.01491538 -12.8807166 -18.05721612 -11.9684251 0 0 Z M-32.4375 51.625 C-33.65888672 51.95628906 -34.88027344 52.28757812 -36.13867188 52.62890625 C-48.80445454 56.20147933 -60.69838027 60.64190604 -68.3046875 71.9375 C-73.91079328 82.08577907 -74.50062 94.79736646 -71.75 105.875 C-69.54711193 113.00620974 -66.13467798 117.66963907 -60 122 C-52.76420557 125.00353731 -46.32335717 124.00426761 -39.125 121.4375 C-33.13636716 118.86695153 -27.98053936 115.17058003 -23 111 C-22.41437286 110.5708429 -21.82874573 110.14168579 -21.22537231 109.69952393 C-18.14140184 107.1467508 -16.26230024 105.19018123 -15.38499451 101.20942688 C-15.19064696 97.80784136 -15.21290622 94.47201177 -15.31640625 91.06640625 C-15.32631088 89.83333237 -15.33621552 88.60025848 -15.34642029 87.32981873 C-15.38548613 83.40615002 -15.4733068 79.48531771 -15.5625 75.5625 C-15.60158057 72.89652529 -15.62955976 70.23057724 -15.65820312 67.56445312 C-15.73522348 61.04200723 -15.85224005 54.52120627 -16 48 C-21.62975991 48 -27.05014946 50.10471124 -32.4375 51.625 Z " fill="#231F20" transform="translate(2879,1330)"/>
<path d="M0 0 C7.2118856 6.16554339 11.37959081 13.69992356 13 23 C13.08389321 24.5907264 13.12207501 26.18436193 13.12025452 27.77729797 C13.12231651 29.17594337 13.12231651 29.17594337 13.12442017 30.60284424 C13.11902725 32.11875153 13.11902725 32.11875153 13.11352539 33.6652832 C13.11367142 34.7389061 13.11381744 35.81252899 13.1139679 36.91868591 C13.11327196 40.46273834 13.10549444 44.00673802 13.09765625 47.55078125 C13.09579094 50.00986197 13.09436757 52.46894307 13.09336853 54.92802429 C13.08955227 61.39707466 13.07972956 67.86610255 13.06866455 74.33514404 C13.0584313 80.93761898 13.0538668 87.54009755 13.04882812 94.14257812 C13.03810652 107.09506355 13.02051689 120.04752638 13 133 C3.43 133 -6.14 133 -16 133 C-16.495 124.09 -16.495 124.09 -17 115 C-17.86625 115.99 -18.7325 116.98 -19.625 118 C-32.11950463 130.41908508 -50.4927905 136.13974672 -67.6875 136.3125 C-68.63044922 136.34150391 -69.57339844 136.37050781 -70.54492188 136.40039062 C-80.19064572 136.48657235 -88.16824056 133.72827103 -95.24609375 127.05078125 C-104.62166268 116.08825633 -104.78890156 102.11540721 -104.1953125 88.46533203 C-103.49907151 79.67703014 -99.9406239 72.40315423 -94 66 C-93.52175781 65.48050781 -93.04351563 64.96101563 -92.55078125 64.42578125 C-77.79301558 50.262787 -53.60021401 47.48447347 -34.56323242 43.09155273 C-28.57377183 41.6948436 -22.80362305 40.03878571 -17 38 C-16.91154984 34.85434954 -16.85913165 31.70902625 -16.8125 28.5625 C-16.78736328 27.68400391 -16.76222656 26.80550781 -16.73632812 25.90039062 C-16.6603903 19.04067333 -17.34575791 12.4897178 -21.61328125 6.87890625 C-22.45439453 6.22728516 -22.45439453 6.22728516 -23.3125 5.5625 C-24.14201172 4.88380859 -24.14201172 4.88380859 -24.98828125 4.19140625 C-34.24229682 -1.28912724 -48.7387509 -0.41727254 -59.015625 1.6875 C-67.88295678 4.20901615 -74.88942118 8.13261423 -80.5625 15.4375 C-83.38329843 18.89759153 -83.38329843 18.89759153 -86.140625 19.35546875 C-89.51337683 18.99756883 -91.58419289 18.41580711 -94 16 C-85.24388158 2.40065358 -74.89494725 -5.3527873 -59 -9 C-39.47805008 -12.44927704 -16.8631779 -11.19871274 0 0 Z M-64 66.1875 C-69.47236861 72.21799575 -72.55298153 80.95366748 -73 89 C-73.05027344 89.73347656 -73.10054687 90.46695312 -73.15234375 91.22265625 C-73.5096864 100.24198486 -71.99931651 109.97222923 -66 117 C-61.3365458 121.55982188 -57.38666917 123.72435652 -50.82421875 124.13671875 C-38.12041309 123.74167406 -27.55301094 115.67063584 -19 107 C-18.47101608 106.57647751 -17.94203217 106.15295502 -17.39701843 105.71659851 C-15.42501823 103.29348617 -15.63853907 101.61670454 -15.65942383 98.51879883 C-15.65965042 97.39786331 -15.65987701 96.2769278 -15.66011047 95.12202454 C-15.67559433 93.91257675 -15.69107819 92.70312897 -15.70703125 91.45703125 C-15.71339851 89.59893074 -15.71339851 89.59893074 -15.71989441 87.70329285 C-15.73385267 84.41350999 -15.76079787 81.12416797 -15.79400635 77.83453369 C-15.82472067 74.47633254 -15.83840261 71.11806682 -15.85351562 67.75976562 C-15.88662641 61.17300426 -15.93685743 54.5865382 -16 48 C-31.38295382 48 -52.45102499 56.16386131 -64 66.1875 Z " fill="#231F20" transform="translate(2637,1330)"/>
<path d="M0 0 C8.16479985 6.79438291 13.74123114 13.77834282 17.375 23.8125 C17.6946875 24.68003906 18.014375 25.54757812 18.34375 26.44140625 C21.53408425 36.82476264 20.375 45.25851858 20.375 56.8125 C-10.975 56.8125 -42.325 56.8125 -74.625 56.8125 C-73.43593863 77.02654324 -70.62744522 97.78473369 -55.8125 112.91796875 C-47.09512199 120.46784077 -36.8427062 125.64469095 -25.06640625 125.16015625 C-11.50674968 123.22926115 -1.35972876 116.9110038 8.26586914 107.59545898 C10.81240265 105.14185523 13.07987476 103.15553683 16.375 101.8125 C17.695 103.1325 19.015 104.4525 20.375 105.8125 C17.69109252 115.35528214 8.39325219 121.87003238 0.375 126.8125 C-11.73399859 132.99513685 -23.91866547 135.36674136 -37.4375 135.25 C-38.66782959 135.24242676 -39.89815918 135.23485352 -41.16577148 135.22705078 C-59.9136373 134.88750982 -74.99778244 128.92196613 -88.625 115.8125 C-97.40480929 105.83268217 -102.85338495 93.75335013 -105.625 80.8125 C-105.80804687 79.96171875 -105.99109375 79.1109375 -106.1796875 78.234375 C-109.19915176 55.03217593 -106.15039777 32.24212007 -91.6875 13.375 C-70.59003535 -11.3669403 -27.43480696 -20.20284254 0 0 Z M-64.30859375 13.84375 C-70.95072144 22.98702801 -73.625 33.6671668 -73.625 44.8125 C-54.155 44.8125 -34.685 44.8125 -14.625 44.8125 C-14.09988403 24.53639064 -14.09988403 24.53639064 -22.625 6.8125 C-28.10117933 1.61012964 -33.26902984 0.33497444 -40.65234375 0.50390625 C-50.71417216 1.54843246 -57.95939214 6.18346036 -64.30859375 13.84375 Z " fill="#231F20" transform="translate(720.625,1331.1875)"/>
<path d="M0 0 C10.06066656 9.42948406 14.21171519 21.74294738 16.4296875 35.05078125 C16.4296875 41.32078125 16.4296875 47.59078125 16.4296875 54.05078125 C-15.2503125 54.05078125 -46.9303125 54.05078125 -79.5703125 54.05078125 C-76.55034536 78.21051836 -74.01358198 98.42522522 -54.98046875 114.28125 C-46.53095177 120.4848662 -37.03826272 123.21881524 -26.5703125 122.05078125 C-13.48573107 119.33296396 -3.90200228 112.82496429 5.45922852 103.60717773 C9.12507172 100.05078125 9.12507172 100.05078125 12.4296875 100.05078125 C14.6171875 101.55078125 14.6171875 101.55078125 16.4296875 103.05078125 C12.51851738 114.01739552 2.50584867 120.99234478 -7.5703125 126.05078125 C-25.57673875 133.73050463 -48.67533548 135.56373789 -67.39453125 129.3671875 C-84.08044738 122.45063924 -96.89950875 111.79041475 -104.40673828 95.20263672 C-106.05000079 91.22360145 -107.40257646 87.19178896 -108.5703125 83.05078125 C-108.75432617 82.40971436 -108.93833984 81.76864746 -109.12792969 81.1081543 C-114.5109158 60.20230582 -111.21118331 36.59396356 -100.90234375 17.8203125 C-92.96236796 4.38421915 -80.36742399 -5.20231929 -65.5703125 -9.94921875 C-43.08286014 -15.715826 -18.99333635 -14.40376115 0 0 Z M-66.5703125 8.05078125 C-74.3970339 18.28304285 -76.62540852 29.40890535 -78.5703125 42.05078125 C-58.7703125 42.05078125 -38.9703125 42.05078125 -18.5703125 42.05078125 C-18.17355517 21.58818266 -18.17355517 21.58818266 -26.984375 3.53515625 C-32.48731348 -1.37515808 -37.52824191 -2.36390972 -44.66796875 -2.19140625 C-53.49341331 -1.45496269 -60.347182 1.70820486 -66.5703125 8.05078125 Z " fill="#231F20" transform="translate(336.5703125,1333.94921875)"/>
<path d="M0 0 C5.14695615 4.52517621 7.99086725 10.36058623 9.328125 17.046875 C9.40216178 19.37903344 9.42328386 21.71548288 9.328125 24.046875 C5.698125 24.046875 2.068125 24.046875 -1.671875 24.046875 C-1.98125 22.066875 -1.98125 22.066875 -2.296875 20.046875 C-3.83797538 13.41389565 -6.64646975 8.96324827 -12.453125 5.28515625 C-24.14099872 -0.80965669 -36.12365759 -3.31010957 -49.171875 0.296875 C-55.41589485 2.4874 -59.87786564 5.56663926 -63.671875 11.046875 C-65.36949922 16.13974765 -65.30684695 21.06258767 -63.671875 26.171875 C-57.91777203 34.44339801 -49.68361408 38.37347453 -40.734375 42.484375 C-39.52543226 43.05225263 -38.3171034 43.62143886 -37.109375 44.19189453 C-31.92555581 46.63392158 -26.71905333 49.02659968 -21.51171875 51.41796875 C-7.42103223 57.90532573 9.80256222 65.92666855 16.328125 81.046875 C19.94894188 91.7915755 20.83024332 101.46775287 16.328125 112.046875 C9.8959673 123.80732175 -2.44379117 128.94174949 -14.5625 133.01953125 C-22.90202658 135.27204157 -31.20088307 135.35619246 -39.796875 135.421875 C-40.97636719 135.43581299 -42.15585938 135.44975098 -43.37109375 135.46411133 C-57.87176621 135.38613984 -71.7365327 131.76832249 -82.671875 121.734375 C-89.86885601 113.82127648 -91.82350747 105.35788287 -91.671875 95.046875 C-87.711875 95.046875 -83.751875 95.046875 -79.671875 95.046875 C-79.053125 97.83125 -79.053125 97.83125 -78.421875 100.671875 C-76.03177509 110.13222393 -71.36796629 115.09007678 -63.296875 120.171875 C-50.80825078 126.02218654 -36.31765093 126.2042195 -23.296875 122.359375 C-17.53630087 120.26392806 -12.76814253 117.4745557 -9.515625 112.15625 C-7.69315159 107.60006648 -7.98758586 102.50685116 -9.2890625 97.828125 C-14.85877012 85.01286852 -32.06640402 80.45397014 -43.94921875 75.3359375 C-45.03984619 74.86373779 -46.13047363 74.39153809 -47.25415039 73.9050293 C-49.39121385 72.9829879 -51.53214621 72.06984344 -53.67749023 71.16723633 C-68.7579661 64.67933523 -84.34458334 55.12463611 -90.796875 39.28515625 C-93.15978325 30.54028599 -93.00424987 20.64785073 -89.109375 12.421875 C-82.17899678 0.68984905 -71.66435049 -5.15422852 -58.734375 -8.828125 C-39.0410611 -13.7592559 -16.72763798 -12.22780554 0 0 Z " fill="#231F20" transform="translate(2091.671875,1330.953125)"/>
<path d="M0 0 C17.49 0 34.98 0 53 0 C53 0.99 53 1.98 53 3 C51.948125 3.31130859 51.948125 3.31130859 50.875 3.62890625 C43.19028773 6.1243495 37.20759651 9.15130759 32.65625 16.03125 C29.37037787 22.5091122 29.64231394 27.29223266 29 35 C38.9 35 48.8 35 59 35 C59 38.96 59 42.92 59 47 C49.1 47 39.2 47 29 47 C29.06287618 61.90790845 29.13805402 76.81563331 29.23571491 91.72335339 C29.28066655 98.64538742 29.32008259 105.56737007 29.34643555 112.48950195 C29.37187666 119.16802676 29.41278548 125.84629225 29.46318626 132.524683 C29.47988891 135.07436598 29.49138196 137.62408852 29.49761391 140.17381859 C29.50721775 143.74136771 29.53523383 147.30832767 29.56762695 150.87573242 C29.56619186 151.93309097 29.56475677 152.99044952 29.5632782 154.07984924 C29.58970064 161.06002255 29.58970064 161.06002255 33 167 C37.09122382 169.72748255 40.20021757 169.60192711 45 169 C52.22326458 166.98451981 56.44834115 161.66536261 61 156 C64.65316671 157.24976756 65.78065836 157.67098753 68 161 C59.76583925 170.84984714 51.25437544 178.97918377 37.96630859 180.30200195 C34.61805365 180.43751099 31.28830334 180.45855016 27.9375 180.4375 C26.80505859 180.45748047 25.67261719 180.47746094 24.50585938 180.49804688 C17.01956929 180.49368678 11.29827043 179.80452678 5.48461914 174.65869141 C-0.67860173 167.98970794 -0.28485895 160.07484544 -0.22705078 151.55688477 C-0.22734283 150.42444839 -0.22763489 149.29201202 -0.22793579 148.1252594 C-0.22654695 144.39722932 -0.21100646 140.66940125 -0.1953125 136.94140625 C-0.19158079 134.35066334 -0.18873457 131.75991902 -0.18673706 129.16917419 C-0.17989152 123.05657335 -0.16414251 116.94405538 -0.14403808 110.83148569 C-0.12163804 103.86895089 -0.11067535 96.90641254 -0.10064721 89.94385064 C-0.079775 75.6291888 -0.0431153 61.31461172 0 47 C-7.59 47 -15.18 47 -23 47 C-23 43.04 -23 39.08 -23 35 C-15.41 35 -7.82 35 0 35 C0 23.45 0 11.9 0 0 Z " fill="#231F20" transform="translate(2452,1286)"/>
<path d="M0 0 C17.82 0 35.64 0 54 0 C54.33 9.9 54.66 19.8 55 30 C56.98 26.04 58.96 22.08 61 18 C67.55343693 9.33613423 75.48466247 3.27391392 86.38671875 1.30078125 C92.24727182 0.62624824 98.1102801 0.31836324 104 0 C104 5.94 104 11.88 104 18 C101.79183594 18.14695312 101.79183594 18.14695312 99.5390625 18.296875 C97.56764428 18.44707829 95.59629341 18.59816739 93.625 18.75 C92.65949219 18.811875 91.69398438 18.87375 90.69921875 18.9375 C81.9907927 19.63884975 73.21017997 21.77835946 66.66015625 27.92578125 C55.19217039 42.2540177 54.54756212 59.41351682 54.48828125 76.86328125 C54.47140138 78.75043378 54.45324679 80.6375753 54.43388367 82.52470398 C54.38673641 87.44823766 54.35670024 92.37172667 54.33044434 97.29541016 C54.30045913 102.33700378 54.25399133 107.37844394 54.20898438 112.41992188 C54.12335334 122.2798845 54.05735788 132.13983233 54 142 C44.43 142 34.86 142 25 142 C24.99589111 138.44750488 24.99178223 134.89500977 24.98754883 131.23486328 C24.9703297 119.48016644 24.92604214 107.72565682 24.86790943 95.97110176 C24.83333067 88.84625995 24.80791331 81.72161018 24.80444336 74.59667969 C24.80139349 68.38289704 24.78076679 62.16945704 24.73947543 55.95580661 C24.7182352 52.66890582 24.70812036 49.3825955 24.71384621 46.09561539 C24.71876154 42.4162449 24.69261413 38.73827953 24.65942383 35.05908203 C24.66804947 33.98229691 24.67667511 32.90551178 24.68556213 31.7960968 C24.55435886 23.08469224 22.14828735 15.91737887 15.9375 9.625 C11.29447399 5.99312188 5.60001921 4.56322375 0 3 C0 2.01 0 1.02 0 0 Z " fill="#231F20" transform="translate(360,1321)"/>
<path d="M0 0 C17.82 0 35.64 0 54 0 C54.33 9.9 54.66 19.8 55 30 C56.98 26.04 58.96 22.08 61 18 C67.55343693 9.33613423 75.48466247 3.27391392 86.38671875 1.30078125 C92.24727182 0.62624824 98.1102801 0.31836324 104 0 C104 5.94 104 11.88 104 18 C102.51628906 18.10957031 101.03257812 18.21914062 99.50390625 18.33203125 C97.52338999 18.49159891 95.54292375 18.6517883 93.5625 18.8125 C92.10166992 18.91788086 92.10166992 18.91788086 90.61132812 19.02539062 C81.61102665 19.77792419 73.63251401 21.30188292 66.91796875 27.66796875 C55.17655376 41.94419023 54.54788882 59.31734836 54.48828125 76.86328125 C54.47140138 78.75043378 54.45324679 80.6375753 54.43388367 82.52470398 C54.38673641 87.44823766 54.35670024 92.37172667 54.33044434 97.29541016 C54.30045913 102.33700378 54.25399133 107.37844394 54.20898438 112.41992188 C54.12335334 122.2798845 54.05735788 132.13983233 54 142 C44.43 142 34.86 142 25 142 C24.99589111 138.44750488 24.99178223 134.89500977 24.98754883 131.23486328 C24.9703297 119.48016644 24.92604214 107.72565682 24.86790943 95.97110176 C24.83333067 88.84625995 24.80791331 81.72161018 24.80444336 74.59667969 C24.80139349 68.38289704 24.78076679 62.16945704 24.73947543 55.95580661 C24.7182352 52.66890582 24.70812036 49.3825955 24.71384621 46.09561539 C24.71876154 42.4162449 24.69261413 38.73827953 24.65942383 35.05908203 C24.66804947 33.98229691 24.67667511 32.90551178 24.68556213 31.7960968 C24.55435886 23.08469224 22.14828735 15.91737887 15.9375 9.625 C11.29447399 5.99312188 5.60001921 4.56322375 0 3 C0 2.01 0 1.02 0 0 Z " fill="#231F20" transform="translate(2663,1321)"/>
</svg>
